<svg width="284" height="368" viewBox="0 0 284 368" fill="none" xmlns="http://www.w3.org/2000/svg">
<circle cx="16" cy="268" r="13" fill="#F1F5F8"/>
<path d="M16.2236 283.553L19 278L13 278L15.7764 283.553C15.8685 283.737 16.1315 283.737 16.2236 283.553Z" fill="#F1F5F8"/>
<path d="M0.447214 267.776L6 265L6 271L0.447214 268.224C0.262952 268.131 0.262952 267.869 0.447214 267.776Z" fill="#F1F5F8"/>
<path d="M31.5528 267.776L26 265L26 271L31.5528 268.224C31.737 268.131 31.737 267.869 31.5528 267.776Z" fill="#F1F5F8"/>
<circle cx="16" cy="268" r="10.5" fill="#E9EEF2" stroke="#172126"/>
<path d="M18.2585 273L16.3685 270.27H16.2565H14.2825V273H12.0145V263.2H16.2565C17.1245 263.2 17.8758 263.345 18.5105 263.634C19.1545 263.923 19.6492 264.334 19.9945 264.866C20.3398 265.398 20.5125 266.028 20.5125 266.756C20.5125 267.484 20.3352 268.114 19.9805 268.646C19.6352 269.169 19.1405 269.57 18.4965 269.85L20.6945 273H18.2585ZM18.2165 266.756C18.2165 266.205 18.0392 265.785 17.6845 265.496C17.3298 265.197 16.8118 265.048 16.1305 265.048H14.2825V268.464H16.1305C16.8118 268.464 17.3298 268.315 17.6845 268.016C18.0392 267.717 18.2165 267.297 18.2165 266.756Z" fill="#172126"/>
<path d="M16.2236 252.447L19 258L13 258L15.7764 252.447C15.8685 252.263 16.1315 252.263 16.2236 252.447Z" fill="#172126"/>
<circle cx="16" cy="226" r="13" fill="#F1F5F8"/>
<path d="M16.2236 241.553L19 236L13 236L15.7764 241.553C15.8685 241.737 16.1315 241.737 16.2236 241.553Z" fill="#F1F5F8"/>
<path d="M0.447214 225.776L6 223L6 229L0.447214 226.224C0.262952 226.131 0.262952 225.869 0.447214 225.776Z" fill="#F1F5F8"/>
<path d="M31.5528 225.776L26 223L26 229L31.5528 226.224C31.737 226.131 31.737 225.869 31.5528 225.776Z" fill="#F1F5F8"/>
<circle cx="16" cy="226" r="10.5" fill="#E9EEF2" stroke="#172126"/>
<path d="M12.9374 221.2H15.2054V229.152H20.1194V231H12.9374V221.2Z" fill="#172126"/>
<path d="M16.2236 210.447L19 216L13 216L15.7764 210.447C15.8685 210.263 16.1315 210.263 16.2236 210.447Z" fill="#172126"/>
<circle cx="226" cy="226" r="13" fill="#F1F5F8"/>
<path d="M226.224 241.553L229 236L223 236L225.776 241.553C225.869 241.737 226.131 241.737 226.224 241.553Z" fill="#F1F5F8"/>
<path d="M210.447 225.776L216 223V229L210.447 226.224C210.263 226.131 210.263 225.869 210.447 225.776Z" fill="#F1F5F8"/>
<path d="M241.553 225.776L236 223L236 229L241.553 226.224C241.737 226.131 241.737 225.869 241.553 225.776Z" fill="#F1F5F8"/>
<circle cx="226" cy="226" r="10.5" fill="#E9EEF2" stroke="#172126"/>
<path d="M222.937 221.2H225.205V229.152H230.119V231H222.937V221.2Z" fill="#172126"/>
<path d="M226.224 210.447L229 216L223 216L225.776 210.447C225.869 210.263 226.131 210.263 226.224 210.447Z" fill="#172126"/>
<path d="M226.224 241.553L229 236L223 236L225.776 241.553C225.869 241.737 226.131 241.737 226.224 241.553Z" fill="#172126"/>
<circle cx="268" cy="226" r="13" fill="#F1F5F8"/>
<path d="M268.224 241.553L271 236L265 236L267.776 241.553C267.869 241.737 268.131 241.737 268.224 241.553Z" fill="#F1F5F8"/>
<path d="M252.447 225.776L258 223V229L252.447 226.224C252.263 226.131 252.263 225.869 252.447 225.776Z" fill="#F1F5F8"/>
<path d="M283.553 225.776L278 223L278 229L283.553 226.224C283.737 226.131 283.737 225.869 283.553 225.776Z" fill="#F1F5F8"/>
<circle cx="268" cy="226" r="10.5" fill="#E9EEF2" stroke="#172126"/>
<path d="M264.937 221.2H267.205V229.152H272.119V231H264.937V221.2Z" fill="#172126"/>
<path d="M268.224 210.447L271 216L265 216L267.776 210.447C267.869 210.263 268.131 210.263 268.224 210.447Z" fill="#172126"/>
<path d="M268.224 241.553L271 236L265 236L267.776 241.553C267.869 241.737 268.131 241.737 268.224 241.553Z" fill="#172126"/>
<path d="M283.553 225.776L278 223L278 229L283.553 226.224C283.737 226.131 283.737 225.869 283.553 225.776Z" fill="#172126"/>
<path d="M252.447 225.776L258 223V229L252.447 226.224C252.263 226.131 252.263 225.869 252.447 225.776Z" fill="#172126"/>
<circle cx="58" cy="184" r="13" fill="#F1F5F8"/>
<path d="M58.2236 168.447L61 174L55 174L57.7764 168.447C57.8685 168.263 58.1315 168.263 58.2236 168.447Z" fill="#F1F5F8"/>
<path d="M58.2236 199.553L61 194L55 194L57.7764 199.553C57.8685 199.737 58.1315 199.737 58.2236 199.553Z" fill="#F1F5F8"/>
<path d="M42.4472 183.776L48 181L48 187L42.4472 184.224C42.263 184.131 42.263 183.869 42.4472 183.776Z" fill="#F1F5F8"/>
<path d="M73.5528 183.776L68 181L68 187L73.5528 184.224C73.737 184.131 73.737 183.869 73.5528 183.776Z" fill="#F1F5F8"/>
<circle cx="58" cy="184" r="11" fill="#E9EEF2"/>
<path d="M60.2585 189L58.3685 186.27H58.2565H56.2825V189H54.0145V179.2H58.2565C59.1245 179.2 59.8758 179.345 60.5105 179.634C61.1545 179.923 61.6492 180.334 61.9945 180.866C62.3398 181.398 62.5125 182.028 62.5125 182.756C62.5125 183.484 62.3352 184.114 61.9805 184.646C61.6352 185.169 61.1405 185.57 60.4965 185.85L62.6945 189H60.2585ZM60.2165 182.756C60.2165 182.205 60.0392 181.785 59.6845 181.496C59.3298 181.197 58.8118 181.048 58.1305 181.048H56.2825V184.464H58.1305C58.8118 184.464 59.3298 184.315 59.6845 184.016C60.0392 183.717 60.2165 183.297 60.2165 182.756Z" fill="#172126"/>
<circle cx="16" cy="184" r="13" fill="#F1F5F8"/>
<path d="M16.2236 168.447L19 174L13 174L15.7764 168.447C15.8685 168.263 16.1315 168.263 16.2236 168.447Z" fill="#F1F5F8"/>
<path d="M16.2236 199.553L19 194L13 194L15.7764 199.553C15.8685 199.737 16.1315 199.737 16.2236 199.553Z" fill="#F1F5F8"/>
<path d="M0.447214 183.776L6 181L6 187L0.447214 184.224C0.262952 184.131 0.262952 183.869 0.447214 183.776Z" fill="#F1F5F8"/>
<path d="M31.5528 183.776L26 181L26 187L31.5528 184.224C31.737 184.131 31.737 183.869 31.5528 183.776Z" fill="#F1F5F8"/>
<circle cx="16" cy="184" r="11" fill="#E9EEF2"/>
<path d="M12.9374 179.2H15.2054V187.152H20.1194V189H12.9374V179.2Z" fill="#172126"/>
<circle cx="100" cy="268" r="13" transform="rotate(-90 100 268)" fill="#F1F5F8"/>
<path d="M115.553 267.776L110 265L110 271L115.553 268.224C115.737 268.131 115.737 267.869 115.553 267.776Z" fill="#F1F5F8"/>
<path d="M99.7764 283.553L97 278L103 278L100.224 283.553C100.131 283.737 99.8685 283.737 99.7764 283.553Z" fill="#F1F5F8"/>
<path d="M99.7764 252.447L97 258L103 258L100.224 252.447C100.131 252.263 99.8685 252.263 99.7764 252.447Z" fill="#F1F5F8"/>
<circle cx="100" cy="268" r="10.5" transform="rotate(-90 100 268)" fill="#E9EEF2" stroke="#172126"/>
<path d="M102.258 273L100.368 270.27H100.256H98.2825V273H96.0145V263.2H100.256C101.124 263.2 101.876 263.345 102.51 263.634C103.154 263.923 103.649 264.334 103.994 264.866C104.34 265.398 104.512 266.028 104.512 266.756C104.512 267.484 104.335 268.114 103.98 268.646C103.635 269.169 103.14 269.57 102.496 269.85L104.694 273H102.258ZM102.216 266.756C102.216 266.205 102.039 265.785 101.684 265.496C101.33 265.197 100.812 265.048 100.13 265.048H98.2825V268.464H100.13C100.812 268.464 101.33 268.315 101.684 268.016C102.039 267.717 102.216 267.297 102.216 266.756Z" fill="#172126"/>
<path d="M84.4472 267.776L90 265V271L84.4472 268.224C84.263 268.131 84.263 267.869 84.4472 267.776Z" fill="#172126"/>
<circle cx="100" cy="226" r="13" transform="rotate(-90 100 226)" fill="#F1F5F8"/>
<path d="M115.553 225.776L110 223L110 229L115.553 226.224C115.737 226.131 115.737 225.869 115.553 225.776Z" fill="#F1F5F8"/>
<path d="M99.7764 241.553L97 236L103 236L100.224 241.553C100.131 241.737 99.8685 241.737 99.7764 241.553Z" fill="#F1F5F8"/>
<path d="M99.7764 210.447L97 216L103 216L100.224 210.447C100.131 210.263 99.8685 210.263 99.7764 210.447Z" fill="#F1F5F8"/>
<circle cx="100" cy="226" r="10.5" transform="rotate(-90 100 226)" fill="#E9EEF2" stroke="#172126"/>
<path d="M96.9374 221.2H99.2054V229.152H104.119V231H96.9374V221.2Z" fill="#172126"/>
<path d="M84.4472 225.776L90 223V229L84.4472 226.224C84.263 226.131 84.263 225.869 84.4472 225.776Z" fill="#172126"/>
<circle cx="13" cy="13" r="13" transform="matrix(1 0 0 -1 45 281)" fill="#F1F5F8"/>
<path d="M58.2236 252.447L61 258L55 258L57.7764 252.447C57.8685 252.263 58.1315 252.263 58.2236 252.447Z" fill="#F1F5F8"/>
<path d="M42.4472 268.224L48 271L48 265L42.4472 267.776C42.263 267.869 42.263 268.131 42.4472 268.224Z" fill="#F1F5F8"/>
<path d="M73.5528 268.224L68 271L68 265L73.5528 267.776C73.737 267.869 73.737 268.131 73.5528 268.224Z" fill="#F1F5F8"/>
<circle cx="11" cy="11" r="10.5" transform="matrix(1 0 0 -1 47 279)" fill="#E9EEF2" stroke="#172126"/>
<path d="M60.2585 273L58.3685 270.27H58.2565H56.2825V273H54.0145V263.2H58.2565C59.1245 263.2 59.8758 263.345 60.5105 263.634C61.1545 263.923 61.6492 264.334 61.9945 264.866C62.3398 265.398 62.5125 266.028 62.5125 266.756C62.5125 267.484 62.3352 268.114 61.9805 268.646C61.6352 269.169 61.1405 269.57 60.4965 269.85L62.6945 273H60.2585ZM60.2165 266.756C60.2165 266.205 60.0392 265.785 59.6845 265.496C59.3298 265.197 58.8118 265.048 58.1305 265.048H56.2825V268.464H58.1305C58.8118 268.464 59.3298 268.315 59.6845 268.016C60.0392 267.717 60.2165 267.297 60.2165 266.756Z" fill="#172126"/>
<path d="M58.2236 283.553L61 278L55 278L57.7764 283.553C57.8685 283.737 58.1315 283.737 58.2236 283.553Z" fill="#172126"/>
<circle cx="13" cy="13" r="13" transform="matrix(1 0 0 -1 213 281)" fill="#F1F5F8"/>
<path d="M226.224 252.447L229 258L223 258L225.776 252.447C225.869 252.263 226.131 252.263 226.224 252.447Z" fill="#F1F5F8"/>
<path d="M210.447 268.224L216 271V265L210.447 267.776C210.263 267.869 210.263 268.131 210.447 268.224Z" fill="#F1F5F8"/>
<path d="M241.553 268.224L236 271L236 265L241.553 267.776C241.737 267.869 241.737 268.131 241.553 268.224Z" fill="#F1F5F8"/>
<circle cx="11" cy="11" r="10.5" transform="matrix(1 0 0 -1 215 279)" fill="#E9EEF2" stroke="#172126"/>
<path d="M228.259 273L226.369 270.27H226.257H224.283V273H222.015V263.2H226.257C227.125 263.2 227.876 263.345 228.511 263.634C229.155 263.923 229.649 264.334 229.995 264.866C230.34 265.398 230.513 266.028 230.513 266.756C230.513 267.484 230.335 268.114 229.981 268.646C229.635 269.169 229.141 269.57 228.497 269.85L230.695 273H228.259ZM228.217 266.756C228.217 266.205 228.039 265.785 227.685 265.496C227.33 265.197 226.812 265.048 226.131 265.048H224.283V268.464H226.131C226.812 268.464 227.33 268.315 227.685 268.016C228.039 267.717 228.217 267.297 228.217 266.756Z" fill="#172126"/>
<path d="M226.224 283.553L229 278L223 278L225.776 283.553C225.869 283.737 226.131 283.737 226.224 283.553Z" fill="#172126"/>
<path d="M226.224 252.447L229 258L223 258L225.776 252.447C225.869 252.263 226.131 252.263 226.224 252.447Z" fill="#172126"/>
<circle cx="13" cy="13" r="13" transform="matrix(1 0 0 -1 255 281)" fill="#F1F5F8"/>
<path d="M268.224 252.447L271 258L265 258L267.776 252.447C267.869 252.263 268.131 252.263 268.224 252.447Z" fill="#F1F5F8"/>
<path d="M252.447 268.224L258 271V265L252.447 267.776C252.263 267.869 252.263 268.131 252.447 268.224Z" fill="#F1F5F8"/>
<path d="M283.553 268.224L278 271L278 265L283.553 267.776C283.737 267.869 283.737 268.131 283.553 268.224Z" fill="#F1F5F8"/>
<circle cx="11" cy="11" r="10.5" transform="matrix(1 0 0 -1 257 279)" fill="#E9EEF2" stroke="#172126"/>
<path d="M270.259 273L268.369 270.27H268.257H266.283V273H264.015V263.2H268.257C269.125 263.2 269.876 263.345 270.511 263.634C271.155 263.923 271.649 264.334 271.995 264.866C272.34 265.398 272.513 266.028 272.513 266.756C272.513 267.484 272.335 268.114 271.981 268.646C271.635 269.169 271.141 269.57 270.497 269.85L272.695 273H270.259ZM270.217 266.756C270.217 266.205 270.039 265.785 269.685 265.496C269.33 265.197 268.812 265.048 268.131 265.048H266.283V268.464H268.131C268.812 268.464 269.33 268.315 269.685 268.016C270.039 267.717 270.217 267.297 270.217 266.756Z" fill="#172126"/>
<path d="M268.224 283.553L271 278L265 278L267.776 283.553C267.869 283.737 268.131 283.737 268.224 283.553Z" fill="#172126"/>
<path d="M268.224 252.447L271 258L265 258L267.776 252.447C267.869 252.263 268.131 252.263 268.224 252.447Z" fill="#172126"/>
<path d="M283.553 267.776L278 265L278 271L283.553 268.224C283.737 268.131 283.737 267.869 283.553 267.776Z" fill="#172126"/>
<path d="M252.447 267.776L258 265V271L252.447 268.224C252.263 268.131 252.263 267.869 252.447 267.776Z" fill="#172126"/>
<circle cx="13" cy="13" r="13" transform="matrix(1 0 0 -1 45 239)" fill="#F1F5F8"/>
<path d="M58.2236 210.447L61 216L55 216L57.7764 210.447C57.8685 210.263 58.1315 210.263 58.2236 210.447Z" fill="#F1F5F8"/>
<path d="M42.4472 226.224L48 229L48 223L42.4472 225.776C42.263 225.869 42.263 226.131 42.4472 226.224Z" fill="#F1F5F8"/>
<path d="M73.5528 226.224L68 229L68 223L73.5528 225.776C73.737 225.869 73.737 226.131 73.5528 226.224Z" fill="#F1F5F8"/>
<circle cx="11" cy="11" r="10.5" transform="matrix(1 0 0 -1 47 237)" fill="#E9EEF2" stroke="#172126"/>
<path d="M54.9374 221.2H57.2054V229.152H62.1194V231H54.9374V221.2Z" fill="#172126"/>
<path d="M58.2236 241.553L61 236L55 236L57.7764 241.553C57.8685 241.737 58.1315 241.737 58.2236 241.553Z" fill="#172126"/>
<circle cx="13" cy="13" r="13" transform="matrix(-4.37114e-08 -1 -1 4.37114e-08 155 281)" fill="#F1F5F8"/>
<path d="M126.447 267.776L132 265V271L126.447 268.224C126.263 268.131 126.263 267.869 126.447 267.776Z" fill="#F1F5F8"/>
<path d="M142.224 283.553L145 278L139 278L141.776 283.553C141.869 283.737 142.131 283.737 142.224 283.553Z" fill="#F1F5F8"/>
<path d="M142.224 252.447L145 258L139 258L141.776 252.447C141.869 252.263 142.131 252.263 142.224 252.447Z" fill="#F1F5F8"/>
<circle cx="11" cy="11" r="10.5" transform="matrix(-4.37114e-08 -1 -1 4.37114e-08 153 279)" fill="#E9EEF2" stroke="#172126"/>
<path d="M144.258 273L142.368 270.27H142.256H140.282V273H138.014V263.2H142.256C143.124 263.2 143.876 263.345 144.51 263.634C145.154 263.923 145.649 264.334 145.994 264.866C146.34 265.398 146.512 266.028 146.512 266.756C146.512 267.484 146.335 268.114 145.98 268.646C145.635 269.169 145.14 269.57 144.496 269.85L146.694 273H144.258ZM144.216 266.756C144.216 266.205 144.039 265.785 143.684 265.496C143.33 265.197 142.812 265.048 142.13 265.048H140.282V268.464H142.13C142.812 268.464 143.33 268.315 143.684 268.016C144.039 267.717 144.216 267.297 144.216 266.756Z" fill="#172126"/>
<path d="M157.553 267.776L152 265L152 271L157.553 268.224C157.737 268.131 157.737 267.869 157.553 267.776Z" fill="#172126"/>
<circle cx="13" cy="13" r="13" transform="matrix(-4.37114e-08 -1 -1 4.37114e-08 197 281)" fill="#F1F5F8"/>
<path d="M168.447 267.776L174 265V271L168.447 268.224C168.263 268.131 168.263 267.869 168.447 267.776Z" fill="#F1F5F8"/>
<path d="M184.224 283.553L187 278L181 278L183.776 283.553C183.869 283.737 184.131 283.737 184.224 283.553Z" fill="#F1F5F8"/>
<path d="M184.224 252.447L187 258L181 258L183.776 252.447C183.869 252.263 184.131 252.263 184.224 252.447Z" fill="#F1F5F8"/>
<circle cx="11" cy="11" r="10.5" transform="matrix(-4.37114e-08 -1 -1 4.37114e-08 195 279)" fill="#E9EEF2" stroke="#172126"/>
<path d="M186.259 273L184.369 270.27H184.257H182.283V273H180.015V263.2H184.257C185.125 263.2 185.876 263.345 186.511 263.634C187.155 263.923 187.649 264.334 187.995 264.866C188.34 265.398 188.513 266.028 188.513 266.756C188.513 267.484 188.335 268.114 187.981 268.646C187.635 269.169 187.141 269.57 186.497 269.85L188.695 273H186.259ZM186.217 266.756C186.217 266.205 186.039 265.785 185.685 265.496C185.33 265.197 184.812 265.048 184.131 265.048H182.283V268.464H184.131C184.812 268.464 185.33 268.315 185.685 268.016C186.039 267.717 186.217 267.297 186.217 266.756Z" fill="#172126"/>
<path d="M199.553 267.776L194 265L194 271L199.553 268.224C199.737 268.131 199.737 267.869 199.553 267.776Z" fill="#172126"/>
<path d="M168.447 267.776L174 265V271L168.447 268.224C168.263 268.131 168.263 267.869 168.447 267.776Z" fill="#172126"/>
<circle cx="13" cy="13" r="13" transform="matrix(-4.37114e-08 -1 -1 4.37114e-08 155 239)" fill="#F1F5F8"/>
<path d="M126.447 225.776L132 223V229L126.447 226.224C126.263 226.131 126.263 225.869 126.447 225.776Z" fill="#F1F5F8"/>
<path d="M142.224 241.553L145 236L139 236L141.776 241.553C141.869 241.737 142.131 241.737 142.224 241.553Z" fill="#F1F5F8"/>
<path d="M142.224 210.447L145 216L139 216L141.776 210.447C141.869 210.263 142.131 210.263 142.224 210.447Z" fill="#F1F5F8"/>
<circle cx="11" cy="11" r="10.5" transform="matrix(-4.37114e-08 -1 -1 4.37114e-08 153 237)" fill="#E9EEF2" stroke="#172126"/>
<path d="M138.937 221.2H141.205V229.152H146.119V231H138.937V221.2Z" fill="#172126"/>
<path d="M157.553 225.776L152 223L152 229L157.553 226.224C157.737 226.131 157.737 225.869 157.553 225.776Z" fill="#172126"/>
<circle cx="13" cy="13" r="13" transform="matrix(-4.37114e-08 -1 -1 4.37114e-08 197 239)" fill="#F1F5F8"/>
<path d="M168.447 225.776L174 223V229L168.447 226.224C168.263 226.131 168.263 225.869 168.447 225.776Z" fill="#F1F5F8"/>
<path d="M184.224 241.553L187 236L181 236L183.776 241.553C183.869 241.737 184.131 241.737 184.224 241.553Z" fill="#F1F5F8"/>
<path d="M184.224 210.447L187 216L181 216L183.776 210.447C183.869 210.263 184.131 210.263 184.224 210.447Z" fill="#F1F5F8"/>
<circle cx="11" cy="11" r="10.5" transform="matrix(-4.37114e-08 -1 -1 4.37114e-08 195 237)" fill="#E9EEF2" stroke="#172126"/>
<path d="M180.937 221.2H183.205V229.152H188.119V231H180.937V221.2Z" fill="#172126"/>
<path d="M199.553 225.776L194 223L194 229L199.553 226.224C199.737 226.131 199.737 225.869 199.553 225.776Z" fill="#172126"/>
<path d="M168.447 225.776L174 223V229L168.447 226.224C168.263 226.131 168.263 225.869 168.447 225.776Z" fill="#172126"/>
<circle cx="58" cy="310" r="11.5" fill="#F1F5F8" stroke="#E9EEF2"/>
<path fill-rule="evenodd" clip-rule="evenodd" d="M56.4 316.8H59.4V311.4H64.8V308.4H59.4V303H56.4L56.4 308.4H51V311.4H56.4L56.4 316.8Z" fill="#172126"/>
<circle cx="16" cy="310" r="11.5" fill="#F1F5F8" stroke="#E9EEF2"/>
<path d="M9 312L9 309L22.8 309V312L9 312Z" fill="#172126"/>
<circle cx="142" cy="310" r="11.5" fill="#F1F5F8" stroke="#E9EEF2"/>
<path fill-rule="evenodd" clip-rule="evenodd" d="M147.294 315.821C147.413 315.707 147.48 315.551 147.48 315.389V309.893L148.664 309.364C149.021 309.205 149.065 308.716 148.743 308.495L142.408 304.159C142.291 304.057 142.138 304 141.98 304C141.822 304 141.669 304.057 141.552 304.159L135.218 308.495C134.895 308.716 134.939 309.205 135.296 309.364L136.48 309.893V315.389C136.48 315.551 136.547 315.707 136.666 315.821C136.786 315.936 136.948 316 137.116 316H146.844C147.012 316 147.174 315.936 147.294 315.821ZM139.98 309C139.428 309 138.98 309.448 138.98 310V313C138.98 313.552 139.428 314 139.98 314H143.98C144.532 314 144.98 313.552 144.98 313V310C144.98 309.448 144.532 309 143.98 309H139.98Z" fill="#172126"/>
<circle cx="100" cy="16" r="11.5" fill="#F1F5F8" stroke="#E9EEF2"/>
<mask id="path-130-outside-1_401_5596" maskUnits="userSpaceOnUse" x="93" y="10" width="14" height="13" fill="black">
<rect fill="white" x="93" y="10" width="14" height="13"/>
<path d="M102.776 19.408H97.1758L96.0718 22H93.9278L98.9678 10.8H101.016L106.072 22H103.896L102.776 19.408ZM102.088 17.776L99.9758 12.88L97.8798 17.776H102.088Z"/>
</mask>
<path d="M102.776 19.408H97.1758L96.0718 22H93.9278L98.9678 10.8H101.016L106.072 22H103.896L102.776 19.408ZM102.088 17.776L99.9758 12.88L97.8798 17.776H102.088Z" fill="#172126"/>
<path d="M102.776 19.408L102.959 19.3287C102.928 19.2554 102.856 19.208 102.776 19.208V19.408ZM97.1758 19.408V19.208C97.0956 19.208 97.0232 19.2559 96.9918 19.3296L97.1758 19.408ZM96.0718 22V22.2C96.152 22.2 96.2244 22.1521 96.2558 22.0784L96.0718 22ZM93.9278 22L93.7454 21.9179C93.7176 21.9798 93.723 22.0516 93.7599 22.1086C93.7967 22.1656 93.8599 22.2 93.9278 22.2V22ZM98.9678 10.8V10.6C98.8891 10.6 98.8177 10.6462 98.7854 10.7179L98.9678 10.8ZM101.016 10.8L101.198 10.7177C101.166 10.6461 101.094 10.6 101.016 10.6V10.8ZM106.072 22V22.2C106.14 22.2 106.203 22.1655 106.24 22.1085C106.277 22.0514 106.282 21.9796 106.254 21.9177L106.072 22ZM103.896 22L103.712 22.0793C103.744 22.1526 103.816 22.2 103.896 22.2V22ZM102.088 17.776V17.976C102.155 17.976 102.218 17.9421 102.255 17.8859C102.292 17.8297 102.298 17.7586 102.271 17.6968L102.088 17.776ZM99.9758 12.88L100.159 12.8008C100.128 12.7274 100.055 12.6799 99.9755 12.68C99.8956 12.6801 99.8234 12.7278 99.792 12.8013L99.9758 12.88ZM97.8798 17.776L97.696 17.6973C97.6695 17.7591 97.6759 17.83 97.7129 17.8861C97.7499 17.9422 97.8126 17.976 97.8798 17.976V17.776ZM102.776 19.208H97.1758V19.608H102.776V19.208ZM96.9918 19.3296L95.8878 21.9216L96.2558 22.0784L97.3598 19.4864L96.9918 19.3296ZM96.0718 21.8H93.9278V22.2H96.0718V21.8ZM94.1102 22.0821L99.1502 10.8821L98.7854 10.7179L93.7454 21.9179L94.1102 22.0821ZM98.9678 11H101.016V10.6H98.9678V11ZM100.834 10.8823L105.89 22.0823L106.254 21.9177L101.198 10.7177L100.834 10.8823ZM106.072 21.8H103.896V22.2H106.072V21.8ZM104.079 21.9207L102.959 19.3287L102.592 19.4873L103.712 22.0793L104.079 21.9207ZM102.271 17.6968L100.159 12.8008L99.7922 12.9592L101.904 17.8552L102.271 17.6968ZM99.792 12.8013L97.696 17.6973L98.0637 17.8547L100.16 12.9587L99.792 12.8013ZM97.8798 17.976H102.088V17.576H97.8798V17.976Z" fill="#172126" mask="url(#path-130-outside-1_401_5596)"/>
<circle cx="58" cy="16" r="11.5" fill="#F1F5F8" stroke="#E9EEF2"/>
<mask id="path-133-outside-2_401_5596" maskUnits="userSpaceOnUse" x="53" y="10" width="12" height="13" fill="black">
<rect fill="white" x="53" y="10" width="12" height="13"/>
<path d="M61.8541 16.176C62.4727 16.3787 62.9634 16.72 63.3261 17.2C63.6887 17.6693 63.8701 18.256 63.8701 18.96C63.8701 19.9307 63.4967 20.6827 62.7501 21.216C62.0034 21.7387 60.9154 22 59.4861 22H53.9181V10.8H59.1661C60.4887 10.8 61.5074 11.0613 62.2221 11.584C62.9367 12.096 63.2941 12.8053 63.2941 13.712C63.2941 14.2667 63.1661 14.7573 62.9101 15.184C62.6541 15.6107 62.3021 15.9413 61.8541 16.176ZM55.9981 12.432V15.52H58.9421C59.6674 15.52 60.2221 15.392 60.6061 15.136C61.0007 14.8693 61.1981 14.4853 61.1981 13.984C61.1981 13.472 61.0007 13.088 60.6061 12.832C60.2221 12.5653 59.6674 12.432 58.9421 12.432H55.9981ZM59.3581 20.368C60.9687 20.368 61.7741 19.8293 61.7741 18.752C61.7741 17.6747 60.9687 17.136 59.3581 17.136H55.9981V20.368H59.3581Z"/>
</mask>
<path d="M61.8541 16.176C62.4727 16.3787 62.9634 16.72 63.3261 17.2C63.6887 17.6693 63.8701 18.256 63.8701 18.96C63.8701 19.9307 63.4967 20.6827 62.7501 21.216C62.0034 21.7387 60.9154 22 59.4861 22H53.9181V10.8H59.1661C60.4887 10.8 61.5074 11.0613 62.2221 11.584C62.9367 12.096 63.2941 12.8053 63.2941 13.712C63.2941 14.2667 63.1661 14.7573 62.9101 15.184C62.6541 15.6107 62.3021 15.9413 61.8541 16.176ZM55.9981 12.432V15.52H58.9421C59.6674 15.52 60.2221 15.392 60.6061 15.136C61.0007 14.8693 61.1981 14.4853 61.1981 13.984C61.1981 13.472 61.0007 13.088 60.6061 12.832C60.2221 12.5653 59.6674 12.432 58.9421 12.432H55.9981ZM59.3581 20.368C60.9687 20.368 61.7741 19.8293 61.7741 18.752C61.7741 17.6747 60.9687 17.136 59.3581 17.136H55.9981V20.368H59.3581Z" fill="#172126"/>
<path d="M61.8541 16.176L61.7613 15.9988C61.69 16.0361 61.6481 16.1125 61.6548 16.1926C61.6614 16.2727 61.7154 16.341 61.7918 16.3661L61.8541 16.176ZM63.3261 17.2L63.1665 17.3206L63.1678 17.3223L63.3261 17.2ZM62.7501 21.216L62.8648 21.3799L62.8663 21.3787L62.7501 21.216ZM53.9181 22H53.7181C53.7181 22.1105 53.8076 22.2 53.9181 22.2V22ZM53.9181 10.8V10.6C53.8076 10.6 53.7181 10.6895 53.7181 10.8H53.9181ZM62.2221 11.584L62.104 11.7454L62.1056 11.7466L62.2221 11.584ZM62.9101 15.184L62.7386 15.0811L62.9101 15.184ZM55.9981 12.432V12.232C55.8876 12.232 55.7981 12.3215 55.7981 12.432H55.9981ZM55.9981 15.52H55.7981C55.7981 15.6305 55.8876 15.72 55.9981 15.72V15.52ZM60.6061 15.136L60.717 15.3024L60.718 15.3017L60.6061 15.136ZM60.6061 12.832L60.4919 12.9964L60.4972 12.9998L60.6061 12.832ZM55.9981 17.136V16.936C55.8876 16.936 55.7981 17.0255 55.7981 17.136H55.9981ZM55.9981 20.368H55.7981C55.7981 20.4785 55.8876 20.568 55.9981 20.568V20.368ZM61.7918 16.3661C62.375 16.5571 62.8305 16.8758 63.1665 17.3206L63.4856 17.0794C63.0963 16.5642 62.5704 16.2002 61.9163 15.9859L61.7918 16.3661ZM63.1678 17.3223C63.4986 17.7504 63.6701 18.2917 63.6701 18.96H64.0701C64.0701 18.2203 63.8789 17.5883 63.4843 17.0777L63.1678 17.3223ZM63.6701 18.96C63.6701 19.8705 63.3244 20.5599 62.6338 21.0533L62.8663 21.3787C63.669 20.8054 64.0701 19.9909 64.0701 18.96H63.6701ZM62.6354 21.0522C61.9365 21.5414 60.896 21.8 59.4861 21.8V22.2C60.9348 22.2 62.0703 21.936 62.8648 21.3798L62.6354 21.0522ZM59.4861 21.8H53.9181V22.2H59.4861V21.8ZM54.1181 22V10.8H53.7181V22H54.1181ZM53.9181 11H59.1661V10.6H53.9181V11ZM59.1661 11C60.4662 11 61.4368 11.2575 62.104 11.7454L62.3401 11.4226C61.578 10.8652 60.5113 10.6 59.1661 10.6V11ZM62.1056 11.7466C62.7659 12.2197 63.0941 12.8674 63.0941 13.712H63.4941C63.4941 12.7432 63.1075 11.9723 62.3385 11.4214L62.1056 11.7466ZM63.0941 13.712C63.0941 14.2347 62.9738 14.689 62.7386 15.0811L63.0816 15.2869C63.3583 14.8257 63.4941 14.2986 63.4941 13.712H63.0941ZM62.7386 15.0811C62.5018 15.4757 62.1773 15.7809 61.7613 15.9988L61.9469 16.3532C62.4269 16.1017 62.8063 15.7456 63.0816 15.2869L62.7386 15.0811ZM55.7981 12.432V15.52H56.1981V12.432H55.7981ZM55.9981 15.72H58.9421V15.32H55.9981V15.72ZM58.9421 15.72C59.6861 15.72 60.2863 15.5895 60.717 15.3024L60.4951 14.9696C60.1578 15.1945 59.6487 15.32 58.9421 15.32V15.72ZM60.718 15.3017C61.1711 14.9956 61.3981 14.5476 61.3981 13.984H60.9981C60.9981 14.4231 60.8304 14.7431 60.4941 14.9703L60.718 15.3017ZM61.3981 13.984C61.3981 13.4114 61.1721 12.9608 60.7149 12.6642L60.4972 12.9998C60.8293 13.2152 60.9981 13.5326 60.9981 13.984H61.3981ZM60.7201 12.6677C60.2888 12.3682 59.6873 12.232 58.9421 12.232V12.632C59.6475 12.632 60.1553 12.7625 60.492 12.9963L60.7201 12.6677ZM58.9421 12.232H55.9981V12.632H58.9421V12.232ZM59.3581 20.568C60.1794 20.568 60.8304 20.4318 61.2813 20.1302C61.7463 19.8192 61.9741 19.3486 61.9741 18.752H61.5741C61.5741 19.2327 61.3991 19.5702 61.0589 19.7978C60.7044 20.0349 60.1474 20.168 59.3581 20.168V20.568ZM61.9741 18.752C61.9741 18.1554 61.7463 17.6848 61.2813 17.3738C60.8304 17.0722 60.1794 16.936 59.3581 16.936V17.336C60.1474 17.336 60.7044 17.4691 61.0589 17.7062C61.3991 17.9338 61.5741 18.2713 61.5741 18.752H61.9741ZM59.3581 16.936H55.9981V17.336H59.3581V16.936ZM55.7981 17.136V20.368H56.1981V17.136H55.7981ZM55.9981 20.568H59.3581V20.168H55.9981V20.568Z" fill="#172126" mask="url(#path-133-outside-2_401_5596)"/>
<circle cx="16" cy="16" r="11.5" fill="#F1F5F8" stroke="#E9EEF2"/>
<mask id="path-136-outside-3_401_5596" maskUnits="userSpaceOnUse" x="10" y="10" width="12" height="13" fill="black">
<rect fill="white" x="10" y="10" width="12" height="13"/>
<path d="M17.0469 18.048V22H14.9669V18.08L10.5669 10.8H12.7909L16.0709 16.256L19.3829 10.8H21.4309L17.0469 18.048Z"/>
</mask>
<path d="M17.0469 18.048V22H14.9669V18.08L10.5669 10.8H12.7909L16.0709 16.256L19.3829 10.8H21.4309L17.0469 18.048Z" fill="#172126"/>
<path d="M17.0469 18.048L16.8758 17.9445C16.8569 17.9757 16.8469 18.0115 16.8469 18.048H17.0469ZM17.0469 22V22.2C17.1574 22.2 17.2469 22.1105 17.2469 22H17.0469ZM14.9669 22H14.7669C14.7669 22.1105 14.8565 22.2 14.9669 22.2V22ZM14.9669 18.08H15.1669C15.1669 18.0435 15.157 18.0078 15.1381 17.9765L14.9669 18.08ZM10.5669 10.8V10.6C10.4948 10.6 10.4282 10.6389 10.3927 10.7017C10.3573 10.7646 10.3584 10.8417 10.3958 10.9035L10.5669 10.8ZM12.7909 10.8L12.9623 10.697C12.9262 10.6368 12.8611 10.6 12.7909 10.6V10.8ZM16.0709 16.256L15.8995 16.359C15.9356 16.4191 16.0005 16.4558 16.0705 16.456C16.1405 16.4561 16.2056 16.4197 16.2419 16.3598L16.0709 16.256ZM19.3829 10.8V10.6C19.3131 10.6 19.2482 10.6365 19.212 10.6962L19.3829 10.8ZM21.4309 10.8L21.6021 10.9035C21.6394 10.8417 21.6406 10.7646 21.6052 10.7018C21.5697 10.6389 21.5031 10.6 21.4309 10.6V10.8ZM16.8469 18.048V22H17.2469V18.048H16.8469ZM17.0469 21.8H14.9669V22.2H17.0469V21.8ZM15.1669 22V18.08H14.7669V22H15.1669ZM15.1381 17.9765L10.7381 10.6965L10.3958 10.9035L14.7958 18.1835L15.1381 17.9765ZM10.5669 11H12.7909V10.6H10.5669V11ZM12.6195 10.903L15.8995 16.359L16.2423 16.153L12.9623 10.697L12.6195 10.903ZM16.2419 16.3598L19.5539 10.9038L19.212 10.6962L15.9 16.1522L16.2419 16.3598ZM19.3829 11H21.4309V10.6H19.3829V11ZM21.2598 10.6965L16.8758 17.9445L17.2181 18.1515L21.6021 10.9035L21.2598 10.6965Z" fill="#172126" mask="url(#path-136-outside-3_401_5596)"/>
<circle cx="142" cy="16" r="11.5" fill="#F1F5F8" stroke="#E9EEF2"/>
<mask id="path-139-outside-4_401_5596" maskUnits="userSpaceOnUse" x="136" y="10" width="12" height="13" fill="black">
<rect fill="white" x="136" y="10" width="12" height="13"/>
<path d="M145.013 22L141.973 17.744L138.965 22H136.597L140.757 16.288L136.821 10.8H139.173L142.037 14.784L144.869 10.8H147.125L143.205 16.208L147.413 22H145.013Z"/>
</mask>
<path d="M145.013 22L141.973 17.744L138.965 22H136.597L140.757 16.288L136.821 10.8H139.173L142.037 14.784L144.869 10.8H147.125L143.205 16.208L147.413 22H145.013Z" fill="#172126"/>
<path d="M145.013 22L144.85 22.1162C144.888 22.1688 144.949 22.2 145.013 22.2V22ZM141.973 17.744L142.136 17.6278C142.098 17.575 142.037 17.5438 141.973 17.544C141.908 17.5442 141.847 17.5757 141.81 17.6286L141.973 17.744ZM138.965 22V22.2C139.03 22.2 139.091 22.1685 139.128 22.1154L138.965 22ZM136.597 22L136.435 21.8823C136.391 21.9431 136.385 22.0236 136.419 22.0907C136.453 22.1578 136.522 22.2 136.597 22.2V22ZM140.757 16.288L140.919 16.4057C140.97 16.336 140.97 16.2415 140.92 16.1714L140.757 16.288ZM136.821 10.8V10.6C136.746 10.6 136.677 10.6419 136.643 10.7087C136.609 10.7754 136.615 10.8556 136.659 10.9166L136.821 10.8ZM139.173 10.8L139.336 10.6833C139.298 10.631 139.238 10.6 139.173 10.6V10.8ZM142.037 14.784L141.875 14.9007C141.912 14.9532 141.973 14.9842 142.038 14.984C142.102 14.9838 142.163 14.9525 142.2 14.8999L142.037 14.784ZM144.869 10.8V10.6C144.804 10.6 144.744 10.6313 144.706 10.6841L144.869 10.8ZM147.125 10.8L147.287 10.9174C147.331 10.8565 147.337 10.7761 147.303 10.7091C147.269 10.6421 147.2 10.6 147.125 10.6V10.8ZM143.205 16.208L143.043 16.0906C142.992 16.1607 142.992 16.2555 143.043 16.3256L143.205 16.208ZM147.413 22V22.2C147.488 22.2 147.557 22.1578 147.591 22.0908C147.625 22.0238 147.619 21.9433 147.575 21.8824L147.413 22ZM145.176 21.8838L142.136 17.6278L141.81 17.8602L144.85 22.1162L145.176 21.8838ZM141.81 17.6286L138.802 21.8846L139.128 22.1154L142.136 17.8594L141.81 17.6286ZM138.965 21.8H136.597V22.2H138.965V21.8ZM136.759 22.1177L140.919 16.4057L140.595 16.1703L136.435 21.8823L136.759 22.1177ZM140.92 16.1714L136.984 10.6834L136.659 10.9166L140.595 16.4046L140.92 16.1714ZM136.821 11H139.173V10.6H136.821V11ZM139.011 10.9167L141.875 14.9007L142.2 14.6673L139.336 10.6833L139.011 10.9167ZM142.2 14.8999L145.032 10.9159L144.706 10.6841L141.874 14.6681L142.2 14.8999ZM144.869 11H147.125V10.6H144.869V11ZM146.963 10.6826L143.043 16.0906L143.367 16.3254L147.287 10.9174L146.963 10.6826ZM143.043 16.3256L147.251 22.1176L147.575 21.8824L143.367 16.0904L143.043 16.3256ZM147.413 21.8H145.013V22.2H147.413V21.8Z" fill="#172126" mask="url(#path-139-outside-4_401_5596)"/>
<circle cx="142" cy="58" r="11.5" fill="#F1F5F8" stroke="#E9EEF2"/>
<path d="M146.8 58.2L139 53V63.4L146.8 58.2Z" fill="#172126"/>
<circle cx="58" cy="58" r="11.5" transform="rotate(90 58 58)" fill="#F1F5F8" stroke="#E9EEF2"/>
<path d="M57.8 62.8L63 55L52.6 55L57.8 62.8Z" fill="#172126"/>
<circle cx="12" cy="12" r="11.5" transform="matrix(-1 0 0 1 112 46)" fill="#F1F5F8" stroke="#E9EEF2"/>
<path d="M95.2 58.2L103 53V63.4L95.2 58.2Z" fill="#172126"/>
<path d="M2.5 345C2.5 341.41 5.41015 338.5 9 338.5H13.5V366.5H9C5.41015 366.5 2.5 363.59 2.5 360V345Z" fill="#F1F5F8"/>
<path d="M2.5 345C2.5 341.41 5.41015 338.5 9 338.5H13.5V366.5H9C5.41015 366.5 2.5 363.59 2.5 360V345Z" stroke="#E9EEF2"/>
<path d="M6 356.623H10H6ZM8 354.576V356.623V358.67" fill="#172126"/>
<path d="M6 356.623H10M8 354.576V356.623V358.67" stroke="#172126" stroke-width="2" stroke-linecap="round" stroke-linejoin="round"/>
<path d="M10.1667 345.563C10.1667 346.805 9.18576 347.792 8.00004 347.792C6.81432 347.792 5.83337 346.805 5.83337 345.563C5.83337 344.32 6.81432 343.333 8.00004 343.333C9.18576 343.333 10.1667 344.32 10.1667 345.563Z" fill="#172126" stroke="#172126"/>
<path d="M28.5 345C28.5 341.41 25.5899 338.5 22 338.5H17.5V366.5H22C25.5899 366.5 28.5 363.59 28.5 360V345Z" fill="#172126"/>
<path d="M28.5 345C28.5 341.41 25.5899 338.5 22 338.5H17.5V366.5H22C25.5899 366.5 28.5 363.59 28.5 360V345Z" stroke="#172126"/>
<path d="M25 356.623H21H25ZM23 354.576V356.623V358.67" fill="#F1F5F8"/>
<path d="M25 356.623H21M23 354.576V356.623V358.67" stroke="#F1F5F8" stroke-width="2" stroke-linecap="round" stroke-linejoin="round"/>
<path d="M20.8333 345.563C20.8333 346.805 21.8142 347.792 23 347.792C24.1857 347.792 25.1666 346.805 25.1666 345.563C25.1666 344.32 24.1857 343.333 23 343.333C21.8142 343.333 20.8333 344.32 20.8333 345.563Z" fill="#F1F5F8" stroke="#F1F5F8"/>
<g clip-path="url(#clip0_401_5596)">
<path d="M96.0622 343.5C92.7141 341.567 88.433 342.714 86.5 346.062L84 350.392L109.115 364.892L111.615 360.562C113.548 357.214 112.401 352.933 109.053 351L96.0622 343.5Z" fill="#172126"/>
<path d="M104.128 352.775L102.128 356.239L104.128 352.775ZM101.355 353.484L103.128 354.507L104.9 355.531" fill="#F1F5F8"/>
<path d="M104.128 352.775L102.128 356.239M101.355 353.484L103.128 354.507L104.9 355.531" stroke="#F1F5F8" stroke-width="2" stroke-linecap="round" stroke-linejoin="round"/>
<path d="M92.4662 350.854C93.5421 351.475 94.8874 351.119 95.4803 350.092C96.0732 349.065 95.7088 347.722 94.6329 347.101C93.557 346.48 92.2117 346.836 91.6188 347.863C91.026 348.89 91.3904 350.233 92.4662 350.854Z" fill="#F1F5F8" stroke="#F1F5F8"/>
</g>
<path d="M95.8122 343.933C92.7033 342.138 88.7279 343.203 86.933 346.312L84.683 350.209L108.932 364.209L111.182 360.312C112.977 357.203 111.911 353.228 108.803 351.433L95.8122 343.933Z" stroke="#172126"/>
<g clip-path="url(#clip1_401_5596)">
<path d="M138.062 360.5C134.714 362.433 130.433 361.286 128.5 357.938L126 353.608L151.115 339.108L153.615 343.438C155.548 346.786 154.401 351.067 151.053 353L138.062 360.5Z" fill="#F1F5F8"/>
<path d="M146.128 351.225L144.128 347.761L146.128 351.225ZM143.355 350.516L145.128 349.493L146.9 348.469" fill="#172126"/>
<path d="M146.128 351.225L144.128 347.761M143.355 350.516L145.128 349.493L146.9 348.469" stroke="#172126" stroke-width="2" stroke-linecap="round" stroke-linejoin="round"/>
<path d="M134.466 353.146C135.542 352.525 136.887 352.881 137.48 353.908C138.073 354.935 137.709 356.278 136.633 356.899C135.557 357.52 134.212 357.164 133.619 356.137C133.026 355.11 133.39 353.767 134.466 353.146Z" fill="#172126" stroke="#172126"/>
</g>
<path d="M137.812 360.067C134.703 361.862 130.728 360.797 128.933 357.688L126.683 353.791L150.932 339.791L153.182 343.688C154.977 346.797 153.911 350.772 150.803 352.567L137.812 360.067Z" stroke="#F1F5F8"/>
<mask id="path-165-inside-5_401_5596" fill="white">
<path fill-rule="evenodd" clip-rule="evenodd" d="M12.6923 128C12.14 128 11.6923 128.448 11.6923 129V136.692C11.6923 137.245 11.2446 137.692 10.6923 137.692H3C2.44771 137.692 2 138.14 2 138.692V145.308C2 145.86 2.44771 146.308 3 146.308H10.6923C11.2446 146.308 11.6923 146.755 11.6923 147.308V155C11.6923 155.552 12.14 156 12.6923 156H19.3077C19.86 156 20.3077 155.552 20.3077 155V147.308C20.3077 146.755 20.7554 146.308 21.3077 146.308H29C29.5523 146.308 30 145.86 30 145.308V138.692C30 138.14 29.5523 137.692 29 137.692H21.3077C20.7554 137.692 20.3077 137.245 20.3077 136.692V129C20.3077 128.448 19.86 128 19.3077 128H12.6923Z"/>
</mask>
<path fill-rule="evenodd" clip-rule="evenodd" d="M12.6923 128C12.14 128 11.6923 128.448 11.6923 129V136.692C11.6923 137.245 11.2446 137.692 10.6923 137.692H3C2.44771 137.692 2 138.14 2 138.692V145.308C2 145.86 2.44771 146.308 3 146.308H10.6923C11.2446 146.308 11.6923 146.755 11.6923 147.308V155C11.6923 155.552 12.14 156 12.6923 156H19.3077C19.86 156 20.3077 155.552 20.3077 155V147.308C20.3077 146.755 20.7554 146.308 21.3077 146.308H29C29.5523 146.308 30 145.86 30 145.308V138.692C30 138.14 29.5523 137.692 29 137.692H21.3077C20.7554 137.692 20.3077 137.245 20.3077 136.692V129C20.3077 128.448 19.86 128 19.3077 128H12.6923Z" fill="#F1F5F8"/>
<path d="M12.6923 129V129V127C11.5877 127 10.6923 127.895 10.6923 129H12.6923ZM12.6923 136.692V129H10.6923V136.692H12.6923ZM3 138.692H10.6923V136.692H3V138.692ZM3 138.692H3V136.692C1.89543 136.692 1 137.588 1 138.692H3ZM3 145.308V138.692H1V145.308H3ZM3 145.308H3H1C1 146.412 1.89543 147.308 3 147.308V145.308ZM10.6923 145.308H3V147.308H10.6923V145.308ZM12.6923 155V147.308H10.6923V155H12.6923ZM12.6923 155H10.6923C10.6923 156.105 11.5877 157 12.6923 157V155ZM19.3077 155H12.6923V157H19.3077V155ZM19.3077 155H19.3077V157C20.4123 157 21.3077 156.105 21.3077 155H19.3077ZM19.3077 147.308V155H21.3077V147.308H19.3077ZM29 145.308H21.3077V147.308H29V145.308ZM29 145.308V147.308C30.1046 147.308 31 146.412 31 145.308H29ZM29 138.692V145.308H31V138.692H29ZM29 138.692H31C31 137.588 30.1046 136.692 29 136.692V138.692ZM21.3077 138.692H29V136.692H21.3077V138.692ZM19.3077 129V136.692H21.3077V129H19.3077ZM19.3077 129H19.3077H21.3077C21.3077 127.895 20.4123 127 19.3077 127V129ZM12.6923 129H19.3077V127H12.6923V129ZM21.3077 136.692V136.692H19.3077C19.3077 137.797 20.2031 138.692 21.3077 138.692V136.692ZM21.3077 147.308V145.308C20.2031 145.308 19.3077 146.203 19.3077 147.308H21.3077ZM10.6923 147.308V147.308H12.6923C12.6923 146.203 11.7969 145.308 10.6923 145.308V147.308ZM10.6923 136.692H10.6923V138.692C11.7969 138.692 12.6923 137.797 12.6923 136.692H10.6923Z" fill="#F1F5F8" mask="url(#path-165-inside-5_401_5596)"/>
<path d="M16 153L18 150L14 150L16 153Z" fill="#172126"/>
<path d="M16 131L14 134L18 134L16 131Z" fill="#172126"/>
<path d="M27 142L24 140L24 144L27 142Z" fill="#172126"/>
<path d="M5 142L8 144L8 140L5 142Z" fill="#172126"/>
<mask id="path-171-inside-6_401_5596" fill="white">
<path fill-rule="evenodd" clip-rule="evenodd" d="M54.6923 128C54.14 128 53.6923 128.448 53.6923 129V136.692C53.6923 137.245 53.2446 137.692 52.6923 137.692H45C44.4477 137.692 44 138.14 44 138.692V145.308C44 145.86 44.4477 146.308 45 146.308H52.6923C53.2446 146.308 53.6923 146.755 53.6923 147.308V155C53.6923 155.552 54.14 156 54.6923 156H61.3077C61.86 156 62.3077 155.552 62.3077 155V147.308C62.3077 146.755 62.7554 146.308 63.3077 146.308H71C71.5523 146.308 72 145.86 72 145.308V138.692C72 138.14 71.5523 137.692 71 137.692H63.3077C62.7554 137.692 62.3077 137.245 62.3077 136.692V129C62.3077 128.448 61.86 128 61.3077 128H54.6923Z"/>
</mask>
<path fill-rule="evenodd" clip-rule="evenodd" d="M54.6923 128C54.14 128 53.6923 128.448 53.6923 129V136.692C53.6923 137.245 53.2446 137.692 52.6923 137.692H45C44.4477 137.692 44 138.14 44 138.692V145.308C44 145.86 44.4477 146.308 45 146.308H52.6923C53.2446 146.308 53.6923 146.755 53.6923 147.308V155C53.6923 155.552 54.14 156 54.6923 156H61.3077C61.86 156 62.3077 155.552 62.3077 155V147.308C62.3077 146.755 62.7554 146.308 63.3077 146.308H71C71.5523 146.308 72 145.86 72 145.308V138.692C72 138.14 71.5523 137.692 71 137.692H63.3077C62.7554 137.692 62.3077 137.245 62.3077 136.692V129C62.3077 128.448 61.86 128 61.3077 128H54.6923Z" fill="#F1F5F8"/>
<path d="M54.6923 129V129V127C53.5877 127 52.6923 127.895 52.6923 129H54.6923ZM54.6923 136.692V129H52.6923V136.692H54.6923ZM45 138.692H52.6923V136.692H45V138.692ZM45 138.692H45V136.692C43.8954 136.692 43 137.588 43 138.692H45ZM45 145.308V138.692H43V145.308H45ZM45 145.308H45H43C43 146.412 43.8954 147.308 45 147.308V145.308ZM52.6923 145.308H45V147.308H52.6923V145.308ZM54.6923 155V147.308H52.6923V155H54.6923ZM54.6923 155H52.6923C52.6923 156.105 53.5877 157 54.6923 157V155ZM61.3077 155H54.6923V157H61.3077V155ZM61.3077 155H61.3077V157C62.4123 157 63.3077 156.105 63.3077 155H61.3077ZM61.3077 147.308V155H63.3077V147.308H61.3077ZM71 145.308H63.3077V147.308H71V145.308ZM71 145.308V147.308C72.1046 147.308 73 146.412 73 145.308H71ZM71 138.692V145.308H73V138.692H71ZM71 138.692H73C73 137.588 72.1046 136.692 71 136.692V138.692ZM63.3077 138.692H71V136.692H63.3077V138.692ZM61.3077 129V136.692H63.3077V129H61.3077ZM61.3077 129H61.3077H63.3077C63.3077 127.895 62.4123 127 61.3077 127V129ZM54.6923 129H61.3077V127H54.6923V129ZM63.3077 136.692V136.692H61.3077C61.3077 137.797 62.2031 138.692 63.3077 138.692V136.692ZM63.3077 147.308V145.308C62.2031 145.308 61.3077 146.203 61.3077 147.308H63.3077ZM52.6923 147.308V147.308H54.6923C54.6923 146.203 53.7969 145.308 52.6923 145.308V147.308ZM52.6923 136.692H52.6923V138.692C53.7969 138.692 54.6923 137.797 54.6923 136.692H52.6923Z" fill="#E9EEF2" mask="url(#path-171-inside-6_401_5596)"/>
<mask id="mask0_401_5596" style="mask-type:alpha" maskUnits="userSpaceOnUse" x="44" y="128" width="28" height="28">
<mask id="path-173-inside-7_401_5596" fill="white">
<path fill-rule="evenodd" clip-rule="evenodd" d="M54.6923 128C54.14 128 53.6923 128.448 53.6923 129V136.692C53.6923 137.245 53.2446 137.692 52.6923 137.692H45C44.4477 137.692 44 138.14 44 138.692V145.308C44 145.86 44.4477 146.308 45 146.308H52.6923C53.2446 146.308 53.6923 146.755 53.6923 147.308V155C53.6923 155.552 54.14 156 54.6923 156H61.3077C61.86 156 62.3077 155.552 62.3077 155V147.308C62.3077 146.755 62.7554 146.308 63.3077 146.308H71C71.5523 146.308 72 145.86 72 145.308V138.692C72 138.14 71.5523 137.692 71 137.692H63.3077C62.7554 137.692 62.3077 137.245 62.3077 136.692V129C62.3077 128.448 61.86 128 61.3077 128H54.6923Z"/>
</mask>
<path fill-rule="evenodd" clip-rule="evenodd" d="M54.6923 128C54.14 128 53.6923 128.448 53.6923 129V136.692C53.6923 137.245 53.2446 137.692 52.6923 137.692H45C44.4477 137.692 44 138.14 44 138.692V145.308C44 145.86 44.4477 146.308 45 146.308H52.6923C53.2446 146.308 53.6923 146.755 53.6923 147.308V155C53.6923 155.552 54.14 156 54.6923 156H61.3077C61.86 156 62.3077 155.552 62.3077 155V147.308C62.3077 146.755 62.7554 146.308 63.3077 146.308H71C71.5523 146.308 72 145.86 72 145.308V138.692C72 138.14 71.5523 137.692 71 137.692H63.3077C62.7554 137.692 62.3077 137.245 62.3077 136.692V129C62.3077 128.448 61.86 128 61.3077 128H54.6923Z" fill="#0F0E17"/>
<path d="M54.6923 129V129V127C53.5877 127 52.6923 127.895 52.6923 129H54.6923ZM54.6923 136.692V129H52.6923V136.692H54.6923ZM45 138.692H52.6923V136.692H45V138.692ZM45 138.692H45V136.692C43.8954 136.692 43 137.588 43 138.692H45ZM45 145.308V138.692H43V145.308H45ZM45 145.308H45H43C43 146.412 43.8954 147.308 45 147.308V145.308ZM52.6923 145.308H45V147.308H52.6923V145.308ZM54.6923 155V147.308H52.6923V155H54.6923ZM54.6923 155H52.6923C52.6923 156.105 53.5877 157 54.6923 157V155ZM61.3077 155H54.6923V157H61.3077V155ZM61.3077 155H61.3077V157C62.4123 157 63.3077 156.105 63.3077 155H61.3077ZM61.3077 147.308V155H63.3077V147.308H61.3077ZM71 145.308H63.3077V147.308H71V145.308ZM71 145.308V147.308C72.1046 147.308 73 146.412 73 145.308H71ZM71 138.692V145.308H73V138.692H71ZM71 138.692H73C73 137.588 72.1046 136.692 71 136.692V138.692ZM63.3077 138.692H71V136.692H63.3077V138.692ZM61.3077 129V136.692H63.3077V129H61.3077ZM61.3077 129H61.3077H63.3077C63.3077 127.895 62.4123 127 61.3077 127V129ZM54.6923 129H61.3077V127H54.6923V129ZM63.3077 136.692V136.692H61.3077C61.3077 137.797 62.2031 138.692 63.3077 138.692V136.692ZM63.3077 147.308V145.308C62.2031 145.308 61.3077 146.203 61.3077 147.308H63.3077ZM52.6923 147.308V147.308H54.6923C54.6923 146.203 53.7969 145.308 52.6923 145.308V147.308ZM52.6923 136.692H52.6923V138.692C53.7969 138.692 54.6923 137.797 54.6923 136.692H52.6923Z" fill="#FFFFFE" mask="url(#path-173-inside-7_401_5596)"/>
</mask>
<g mask="url(#mask0_401_5596)">
<path d="M53 127.68H63V133.68C63 136.441 60.7614 138.68 58 138.68C55.2386 138.68 53 136.441 53 133.68V127.68Z" fill="#172126"/>
<path d="M58 153L60 150L56 150L58 153Z" fill="#172126"/>
<path d="M58 131L56 134L60 134L58 131Z" fill="#F1F5F8"/>
<path d="M69 142L66 140V144L69 142Z" fill="#172126"/>
<path d="M47 142L50 144L50 140L47 142Z" fill="#172126"/>
</g>
<mask id="path-180-inside-8_401_5596" fill="white">
<path fill-rule="evenodd" clip-rule="evenodd" d="M128.16 145.148C128.16 145.7 128.608 146.148 129.16 146.148L136.852 146.148C137.405 146.148 137.852 146.595 137.852 147.148L137.852 154.84C137.852 155.392 138.3 155.84 138.852 155.84L145.468 155.84C146.02 155.84 146.468 155.392 146.468 154.84L146.468 147.148C146.468 146.595 146.915 146.148 147.468 146.148L155.16 146.148C155.712 146.148 156.16 145.7 156.16 145.148L156.16 138.532C156.16 137.98 155.712 137.532 155.16 137.532L147.468 137.532C146.915 137.532 146.468 137.085 146.468 136.532L146.468 128.84C146.468 128.288 146.02 127.84 145.468 127.84L138.852 127.84C138.3 127.84 137.852 128.288 137.852 128.84L137.852 136.532C137.852 137.085 137.405 137.532 136.852 137.532L129.16 137.532C128.608 137.532 128.16 137.98 128.16 138.532L128.16 145.148Z"/>
</mask>
<path fill-rule="evenodd" clip-rule="evenodd" d="M128.16 145.148C128.16 145.7 128.608 146.148 129.16 146.148L136.852 146.148C137.405 146.148 137.852 146.595 137.852 147.148L137.852 154.84C137.852 155.392 138.3 155.84 138.852 155.84L145.468 155.84C146.02 155.84 146.468 155.392 146.468 154.84L146.468 147.148C146.468 146.595 146.915 146.148 147.468 146.148L155.16 146.148C155.712 146.148 156.16 145.7 156.16 145.148L156.16 138.532C156.16 137.98 155.712 137.532 155.16 137.532L147.468 137.532C146.915 137.532 146.468 137.085 146.468 136.532L146.468 128.84C146.468 128.288 146.02 127.84 145.468 127.84L138.852 127.84C138.3 127.84 137.852 128.288 137.852 128.84L137.852 136.532C137.852 137.085 137.405 137.532 136.852 137.532L129.16 137.532C128.608 137.532 128.16 137.98 128.16 138.532L128.16 145.148Z" fill="#F1F5F8"/>
<path d="M129.16 145.148L129.16 145.148L127.16 145.148C127.16 146.252 128.055 147.148 129.16 147.148L129.16 145.148ZM136.852 145.148L129.16 145.148L129.16 147.148L136.852 147.148L136.852 145.148ZM138.852 154.84L138.852 147.148L136.852 147.148L136.852 154.84L138.852 154.84ZM138.852 154.84L138.852 154.84L136.852 154.84C136.852 155.945 137.748 156.84 138.852 156.84L138.852 154.84ZM145.468 154.84L138.852 154.84L138.852 156.84L145.468 156.84L145.468 154.84ZM145.468 154.84L145.468 154.84L145.468 156.84C146.572 156.84 147.468 155.945 147.468 154.84L145.468 154.84ZM145.468 147.148L145.468 154.84L147.468 154.84L147.468 147.148L145.468 147.148ZM155.16 145.148L147.468 145.148L147.468 147.148L155.16 147.148L155.16 145.148ZM155.16 145.148L155.16 147.148C156.265 147.148 157.16 146.252 157.16 145.148L155.16 145.148ZM155.16 138.532L155.16 145.148L157.16 145.148L157.16 138.532L155.16 138.532ZM155.16 138.532L155.16 138.532L157.16 138.532C157.16 137.428 156.265 136.532 155.16 136.532L155.16 138.532ZM147.468 138.532L155.16 138.532L155.16 136.532L147.468 136.532L147.468 138.532ZM145.468 128.84L145.468 136.532L147.468 136.532L147.468 128.84L145.468 128.84ZM145.468 128.84L147.468 128.84C147.468 127.735 146.572 126.84 145.468 126.84L145.468 128.84ZM138.852 128.84L145.468 128.84L145.468 126.84L138.852 126.84L138.852 128.84ZM138.852 128.84L138.852 126.84C137.748 126.84 136.852 127.735 136.852 128.84L138.852 128.84ZM138.852 136.532L138.852 128.84L136.852 128.84L136.852 136.532L138.852 136.532ZM129.16 138.532L136.852 138.532L136.852 136.532L129.16 136.532L129.16 138.532ZM129.16 138.532L129.16 138.532L129.16 136.532C128.055 136.532 127.16 137.428 127.16 138.532L129.16 138.532ZM129.16 145.148L129.16 138.532L127.16 138.532L127.16 145.148L129.16 145.148ZM136.852 136.532L136.852 136.532L136.852 138.532C137.957 138.532 138.852 137.637 138.852 136.532L136.852 136.532ZM147.468 136.532L145.468 136.532C145.468 137.637 146.363 138.532 147.468 138.532L147.468 136.532ZM147.468 147.148L147.468 147.148L147.468 145.148C146.363 145.148 145.468 146.043 145.468 147.148L147.468 147.148ZM136.852 147.148L136.852 147.148L138.852 147.148C138.852 146.043 137.957 145.148 136.852 145.148L136.852 147.148Z" fill="#E9EEF2" mask="url(#path-180-inside-8_401_5596)"/>
<mask id="mask1_401_5596" style="mask-type:alpha" maskUnits="userSpaceOnUse" x="128" y="127" width="29" height="29">
<mask id="path-182-inside-9_401_5596" fill="white">
<path fill-rule="evenodd" clip-rule="evenodd" d="M128.16 145.148C128.16 145.7 128.608 146.148 129.16 146.148L136.852 146.148C137.405 146.148 137.852 146.595 137.852 147.148L137.852 154.84C137.852 155.392 138.3 155.84 138.852 155.84L145.468 155.84C146.02 155.84 146.468 155.392 146.468 154.84L146.468 147.148C146.468 146.595 146.915 146.148 147.468 146.148L155.16 146.148C155.712 146.148 156.16 145.7 156.16 145.148L156.16 138.532C156.16 137.98 155.712 137.532 155.16 137.532L147.468 137.532C146.915 137.532 146.468 137.085 146.468 136.532L146.468 128.84C146.468 128.288 146.02 127.84 145.468 127.84L138.852 127.84C138.3 127.84 137.852 128.288 137.852 128.84L137.852 136.532C137.852 137.085 137.405 137.532 136.852 137.532L129.16 137.532C128.608 137.532 128.16 137.98 128.16 138.532L128.16 145.148Z"/>
</mask>
<path fill-rule="evenodd" clip-rule="evenodd" d="M128.16 145.148C128.16 145.7 128.608 146.148 129.16 146.148L136.852 146.148C137.405 146.148 137.852 146.595 137.852 147.148L137.852 154.84C137.852 155.392 138.3 155.84 138.852 155.84L145.468 155.84C146.02 155.84 146.468 155.392 146.468 154.84L146.468 147.148C146.468 146.595 146.915 146.148 147.468 146.148L155.16 146.148C155.712 146.148 156.16 145.7 156.16 145.148L156.16 138.532C156.16 137.98 155.712 137.532 155.16 137.532L147.468 137.532C146.915 137.532 146.468 137.085 146.468 136.532L146.468 128.84C146.468 128.288 146.02 127.84 145.468 127.84L138.852 127.84C138.3 127.84 137.852 128.288 137.852 128.84L137.852 136.532C137.852 137.085 137.405 137.532 136.852 137.532L129.16 137.532C128.608 137.532 128.16 137.98 128.16 138.532L128.16 145.148Z" fill="#0F0E17"/>
<path d="M129.16 145.148L129.16 145.148L127.16 145.148C127.16 146.252 128.055 147.148 129.16 147.148L129.16 145.148ZM136.852 145.148L129.16 145.148L129.16 147.148L136.852 147.148L136.852 145.148ZM138.852 154.84L138.852 147.148L136.852 147.148L136.852 154.84L138.852 154.84ZM138.852 154.84L138.852 154.84L136.852 154.84C136.852 155.945 137.748 156.84 138.852 156.84L138.852 154.84ZM145.468 154.84L138.852 154.84L138.852 156.84L145.468 156.84L145.468 154.84ZM145.468 154.84L145.468 154.84L145.468 156.84C146.572 156.84 147.468 155.945 147.468 154.84L145.468 154.84ZM145.468 147.148L145.468 154.84L147.468 154.84L147.468 147.148L145.468 147.148ZM155.16 145.148L147.468 145.148L147.468 147.148L155.16 147.148L155.16 145.148ZM155.16 145.148L155.16 147.148C156.265 147.148 157.16 146.252 157.16 145.148L155.16 145.148ZM155.16 138.532L155.16 145.148L157.16 145.148L157.16 138.532L155.16 138.532ZM155.16 138.532L155.16 138.532L157.16 138.532C157.16 137.428 156.265 136.532 155.16 136.532L155.16 138.532ZM147.468 138.532L155.16 138.532L155.16 136.532L147.468 136.532L147.468 138.532ZM145.468 128.84L145.468 136.532L147.468 136.532L147.468 128.84L145.468 128.84ZM145.468 128.84L147.468 128.84C147.468 127.735 146.572 126.84 145.468 126.84L145.468 128.84ZM138.852 128.84L145.468 128.84L145.468 126.84L138.852 126.84L138.852 128.84ZM138.852 128.84L138.852 126.84C137.748 126.84 136.852 127.735 136.852 128.84L138.852 128.84ZM138.852 136.532L138.852 128.84L136.852 128.84L136.852 136.532L138.852 136.532ZM129.16 138.532L136.852 138.532L136.852 136.532L129.16 136.532L129.16 138.532ZM129.16 138.532L129.16 138.532L129.16 136.532C128.055 136.532 127.16 137.428 127.16 138.532L129.16 138.532ZM129.16 145.148L129.16 138.532L127.16 138.532L127.16 145.148L129.16 145.148ZM136.852 136.532L136.852 136.532L136.852 138.532C137.957 138.532 138.852 137.637 138.852 136.532L136.852 136.532ZM147.468 136.532L145.468 136.532C145.468 137.637 146.363 138.532 147.468 138.532L147.468 136.532ZM147.468 147.148L147.468 147.148L147.468 145.148C146.363 145.148 145.468 146.043 145.468 147.148L147.468 147.148ZM136.852 147.148L136.852 147.148L138.852 147.148C138.852 146.043 137.957 145.148 136.852 145.148L136.852 147.148Z" fill="#232323" mask="url(#path-182-inside-9_401_5596)"/>
</mask>
<g mask="url(#mask1_401_5596)">
<path d="M127.84 146.84L127.84 136.84L133.84 136.84C136.601 136.84 138.84 139.079 138.84 141.84C138.84 144.601 136.601 146.84 133.84 146.84L127.84 146.84Z" fill="#172126"/>
<path d="M153.16 141.84L150.16 139.84V143.84L153.16 141.84Z" fill="#172126"/>
<path d="M131.16 141.84L134.16 143.84L134.16 139.84L131.16 141.84Z" fill="#F1F5F8"/>
<path d="M142.16 130.84L140.16 133.84L144.16 133.84L142.16 130.84Z" fill="#172126"/>
<path d="M142.16 152.84L144.16 149.84L140.16 149.84L142.16 152.84Z" fill="#172126"/>
</g>
<mask id="path-189-inside-10_401_5596" fill="white">
<path fill-rule="evenodd" clip-rule="evenodd" d="M96.6923 155.68C96.14 155.68 95.6923 155.232 95.6923 154.68V146.988C95.6923 146.435 95.2446 145.988 94.6923 145.988H87C86.4477 145.988 86 145.54 86 144.988V138.372C86 137.82 86.4477 137.372 87 137.372H94.6923C95.2446 137.372 95.6923 136.925 95.6923 136.372V128.68C95.6923 128.128 96.14 127.68 96.6923 127.68H103.308C103.86 127.68 104.308 128.128 104.308 128.68V136.372C104.308 136.925 104.755 137.372 105.308 137.372H113C113.552 137.372 114 137.82 114 138.372V144.988C114 145.54 113.552 145.988 113 145.988H105.308C104.755 145.988 104.308 146.435 104.308 146.988V154.68C104.308 155.232 103.86 155.68 103.308 155.68H96.6923Z"/>
</mask>
<path fill-rule="evenodd" clip-rule="evenodd" d="M96.6923 155.68C96.14 155.68 95.6923 155.232 95.6923 154.68V146.988C95.6923 146.435 95.2446 145.988 94.6923 145.988H87C86.4477 145.988 86 145.54 86 144.988V138.372C86 137.82 86.4477 137.372 87 137.372H94.6923C95.2446 137.372 95.6923 136.925 95.6923 136.372V128.68C95.6923 128.128 96.14 127.68 96.6923 127.68H103.308C103.86 127.68 104.308 128.128 104.308 128.68V136.372C104.308 136.925 104.755 137.372 105.308 137.372H113C113.552 137.372 114 137.82 114 138.372V144.988C114 145.54 113.552 145.988 113 145.988H105.308C104.755 145.988 104.308 146.435 104.308 146.988V154.68C104.308 155.232 103.86 155.68 103.308 155.68H96.6923Z" fill="#F1F5F8"/>
<path d="M96.6923 154.68V154.68V156.68C95.5877 156.68 94.6923 155.785 94.6923 154.68H96.6923ZM96.6923 146.988V154.68H94.6923V146.988H96.6923ZM87 144.988H94.6923V146.988H87V144.988ZM87 144.988H87V146.988C85.8954 146.988 85 146.092 85 144.988H87ZM87 138.372V144.988H85V138.372H87ZM87 138.372H87H85C85 137.268 85.8954 136.372 87 136.372V138.372ZM94.6923 138.372H87V136.372H94.6923V138.372ZM96.6923 128.68V136.372H94.6923V128.68H96.6923ZM96.6923 128.68H94.6923C94.6923 127.575 95.5877 126.68 96.6923 126.68V128.68ZM103.308 128.68H96.6923V126.68H103.308V128.68ZM103.308 128.68H103.308V126.68C104.412 126.68 105.308 127.575 105.308 128.68H103.308ZM103.308 136.372V128.68H105.308V136.372H103.308ZM113 138.372H105.308V136.372H113V138.372ZM113 138.372V136.372C114.105 136.372 115 137.268 115 138.372H113ZM113 144.988V138.372H115V144.988H113ZM113 144.988H115C115 146.092 114.105 146.988 113 146.988V144.988ZM105.308 144.988H113V146.988H105.308V144.988ZM103.308 154.68V146.988H105.308V154.68H103.308ZM103.308 154.68H103.308H105.308C105.308 155.785 104.412 156.68 103.308 156.68V154.68ZM96.6923 154.68H103.308V156.68H96.6923V154.68ZM105.308 146.988V146.988H103.308C103.308 145.883 104.203 144.988 105.308 144.988V146.988ZM105.308 136.372V138.372C104.203 138.372 103.308 137.477 103.308 136.372H105.308ZM94.6923 136.372V136.372H96.6923C96.6923 137.477 95.7969 138.372 94.6923 138.372V136.372ZM94.6923 146.988H94.6923V144.988C95.7969 144.988 96.6923 145.883 96.6923 146.988H94.6923Z" fill="#E9EEF2" mask="url(#path-189-inside-10_401_5596)"/>
<mask id="mask2_401_5596" style="mask-type:alpha" maskUnits="userSpaceOnUse" x="86" y="127" width="28" height="29">
<mask id="path-191-inside-11_401_5596" fill="white">
<path fill-rule="evenodd" clip-rule="evenodd" d="M96.6923 155.68C96.14 155.68 95.6923 155.232 95.6923 154.68V146.988C95.6923 146.435 95.2446 145.988 94.6923 145.988H87C86.4477 145.988 86 145.54 86 144.988V138.372C86 137.82 86.4477 137.372 87 137.372H94.6923C95.2446 137.372 95.6923 136.925 95.6923 136.372V128.68C95.6923 128.128 96.14 127.68 96.6923 127.68H103.308C103.86 127.68 104.308 128.128 104.308 128.68V136.372C104.308 136.925 104.755 137.372 105.308 137.372H113C113.552 137.372 114 137.82 114 138.372V144.988C114 145.54 113.552 145.988 113 145.988H105.308C104.755 145.988 104.308 146.435 104.308 146.988V154.68C104.308 155.232 103.86 155.68 103.308 155.68H96.6923Z"/>
</mask>
<path fill-rule="evenodd" clip-rule="evenodd" d="M96.6923 155.68C96.14 155.68 95.6923 155.232 95.6923 154.68V146.988C95.6923 146.435 95.2446 145.988 94.6923 145.988H87C86.4477 145.988 86 145.54 86 144.988V138.372C86 137.82 86.4477 137.372 87 137.372H94.6923C95.2446 137.372 95.6923 136.925 95.6923 136.372V128.68C95.6923 128.128 96.14 127.68 96.6923 127.68H103.308C103.86 127.68 104.308 128.128 104.308 128.68V136.372C104.308 136.925 104.755 137.372 105.308 137.372H113C113.552 137.372 114 137.82 114 138.372V144.988C114 145.54 113.552 145.988 113 145.988H105.308C104.755 145.988 104.308 146.435 104.308 146.988V154.68C104.308 155.232 103.86 155.68 103.308 155.68H96.6923Z" fill="#0F0E17"/>
<path d="M96.6923 154.68V154.68V156.68C95.5877 156.68 94.6923 155.785 94.6923 154.68H96.6923ZM96.6923 146.988V154.68H94.6923V146.988H96.6923ZM87 144.988H94.6923V146.988H87V144.988ZM87 144.988H87V146.988C85.8954 146.988 85 146.092 85 144.988H87ZM87 138.372V144.988H85V138.372H87ZM87 138.372H87H85C85 137.268 85.8954 136.372 87 136.372V138.372ZM94.6923 138.372H87V136.372H94.6923V138.372ZM96.6923 128.68V136.372H94.6923V128.68H96.6923ZM96.6923 128.68H94.6923C94.6923 127.575 95.5877 126.68 96.6923 126.68V128.68ZM103.308 128.68H96.6923V126.68H103.308V128.68ZM103.308 128.68H103.308V126.68C104.412 126.68 105.308 127.575 105.308 128.68H103.308ZM103.308 136.372V128.68H105.308V136.372H103.308ZM113 138.372H105.308V136.372H113V138.372ZM113 138.372V136.372C114.105 136.372 115 137.268 115 138.372H113ZM113 144.988V138.372H115V144.988H113ZM113 144.988H115C115 146.092 114.105 146.988 113 146.988V144.988ZM105.308 144.988H113V146.988H105.308V144.988ZM103.308 154.68V146.988H105.308V154.68H103.308ZM103.308 154.68H103.308H105.308C105.308 155.785 104.412 156.68 103.308 156.68V154.68ZM96.6923 154.68H103.308V156.68H96.6923V154.68ZM105.308 146.988V146.988H103.308C103.308 145.883 104.203 144.988 105.308 144.988V146.988ZM105.308 136.372V138.372C104.203 138.372 103.308 137.477 103.308 136.372H105.308ZM94.6923 136.372V136.372H96.6923C96.6923 137.477 95.7969 138.372 94.6923 138.372V136.372ZM94.6923 146.988H94.6923V144.988C95.7969 144.988 96.6923 145.883 96.6923 146.988H94.6923Z" fill="#FFFFFE" mask="url(#path-191-inside-11_401_5596)"/>
</mask>
<g mask="url(#mask2_401_5596)">
<path d="M95 156H105V150C105 147.239 102.761 145 100 145C97.2386 145 95 147.239 95 150V156Z" fill="#172126"/>
<path d="M100 130.68L102 133.68L98 133.68L100 130.68Z" fill="#172126"/>
<path d="M100 152.68L98 149.68L102 149.68L100 152.68Z" fill="#F1F5F8"/>
<path d="M111 141.68L108 143.68V139.68L111 141.68Z" fill="#172126"/>
<path d="M89 141.68L92 139.68L92 143.68L89 141.68Z" fill="#172126"/>
</g>
<mask id="path-198-inside-12_401_5596" fill="white">
<path fill-rule="evenodd" clip-rule="evenodd" d="M264.692 155.68C264.14 155.68 263.692 155.232 263.692 154.68V146.988C263.692 146.435 263.245 145.988 262.692 145.988H255C254.448 145.988 254 145.54 254 144.988V138.372C254 137.82 254.448 137.372 255 137.372H262.692C263.245 137.372 263.692 136.925 263.692 136.372V128.68C263.692 128.128 264.14 127.68 264.692 127.68H271.308C271.86 127.68 272.308 128.128 272.308 128.68V136.372C272.308 136.925 272.755 137.372 273.308 137.372H281C281.552 137.372 282 137.82 282 138.372V144.988C282 145.54 281.552 145.988 281 145.988H273.308C272.755 145.988 272.308 146.435 272.308 146.988V154.68C272.308 155.232 271.86 155.68 271.308 155.68H264.692Z"/>
</mask>
<path fill-rule="evenodd" clip-rule="evenodd" d="M264.692 155.68C264.14 155.68 263.692 155.232 263.692 154.68V146.988C263.692 146.435 263.245 145.988 262.692 145.988H255C254.448 145.988 254 145.54 254 144.988V138.372C254 137.82 254.448 137.372 255 137.372H262.692C263.245 137.372 263.692 136.925 263.692 136.372V128.68C263.692 128.128 264.14 127.68 264.692 127.68H271.308C271.86 127.68 272.308 128.128 272.308 128.68V136.372C272.308 136.925 272.755 137.372 273.308 137.372H281C281.552 137.372 282 137.82 282 138.372V144.988C282 145.54 281.552 145.988 281 145.988H273.308C272.755 145.988 272.308 146.435 272.308 146.988V154.68C272.308 155.232 271.86 155.68 271.308 155.68H264.692Z" fill="#F1F5F8"/>
<path d="M264.692 154.68V154.68V156.68C263.588 156.68 262.692 155.785 262.692 154.68H264.692ZM264.692 146.988V154.68H262.692V146.988H264.692ZM255 144.988H262.692V146.988H255V144.988ZM255 144.988H255V146.988C253.895 146.988 253 146.092 253 144.988H255ZM255 138.372V144.988H253V138.372H255ZM255 138.372H255H253C253 137.268 253.895 136.372 255 136.372V138.372ZM262.692 138.372H255V136.372H262.692V138.372ZM264.692 128.68V136.372H262.692V128.68H264.692ZM264.692 128.68H262.692C262.692 127.575 263.588 126.68 264.692 126.68V128.68ZM271.308 128.68H264.692V126.68H271.308V128.68ZM271.308 128.68H271.308V126.68C272.412 126.68 273.308 127.575 273.308 128.68H271.308ZM271.308 136.372V128.68H273.308V136.372H271.308ZM281 138.372H273.308V136.372H281V138.372ZM281 138.372V136.372C282.105 136.372 283 137.268 283 138.372H281ZM281 144.988V138.372H283V144.988H281ZM281 144.988H283C283 146.092 282.105 146.988 281 146.988V144.988ZM273.308 144.988H281V146.988H273.308V144.988ZM271.308 154.68V146.988H273.308V154.68H271.308ZM271.308 154.68H271.308H273.308C273.308 155.785 272.412 156.68 271.308 156.68V154.68ZM264.692 154.68H271.308V156.68H264.692V154.68ZM273.308 146.988V146.988H271.308C271.308 145.883 272.203 144.988 273.308 144.988V146.988ZM273.308 136.372V138.372C272.203 138.372 271.308 137.477 271.308 136.372H273.308ZM262.692 136.372V136.372H264.692C264.692 137.477 263.797 138.372 262.692 138.372V136.372ZM262.692 146.988H262.692V144.988C263.797 144.988 264.692 145.883 264.692 146.988H262.692Z" fill="#E9EEF2" mask="url(#path-198-inside-12_401_5596)"/>
<mask id="mask3_401_5596" style="mask-type:alpha" maskUnits="userSpaceOnUse" x="254" y="127" width="28" height="29">
<mask id="path-200-inside-13_401_5596" fill="white">
<path fill-rule="evenodd" clip-rule="evenodd" d="M264.692 155.68C264.14 155.68 263.692 155.232 263.692 154.68V146.988C263.692 146.435 263.245 145.988 262.692 145.988H255C254.448 145.988 254 145.54 254 144.988V138.372C254 137.82 254.448 137.372 255 137.372H262.692C263.245 137.372 263.692 136.925 263.692 136.372V128.68C263.692 128.128 264.14 127.68 264.692 127.68H271.308C271.86 127.68 272.308 128.128 272.308 128.68V136.372C272.308 136.925 272.755 137.372 273.308 137.372H281C281.552 137.372 282 137.82 282 138.372V144.988C282 145.54 281.552 145.988 281 145.988H273.308C272.755 145.988 272.308 146.435 272.308 146.988V154.68C272.308 155.232 271.86 155.68 271.308 155.68H264.692Z"/>
</mask>
<path fill-rule="evenodd" clip-rule="evenodd" d="M264.692 155.68C264.14 155.68 263.692 155.232 263.692 154.68V146.988C263.692 146.435 263.245 145.988 262.692 145.988H255C254.448 145.988 254 145.54 254 144.988V138.372C254 137.82 254.448 137.372 255 137.372H262.692C263.245 137.372 263.692 136.925 263.692 136.372V128.68C263.692 128.128 264.14 127.68 264.692 127.68H271.308C271.86 127.68 272.308 128.128 272.308 128.68V136.372C272.308 136.925 272.755 137.372 273.308 137.372H281C281.552 137.372 282 137.82 282 138.372V144.988C282 145.54 281.552 145.988 281 145.988H273.308C272.755 145.988 272.308 146.435 272.308 146.988V154.68C272.308 155.232 271.86 155.68 271.308 155.68H264.692Z" fill="#0F0E17"/>
<path d="M264.692 154.68V154.68V156.68C263.588 156.68 262.692 155.785 262.692 154.68H264.692ZM264.692 146.988V154.68H262.692V146.988H264.692ZM255 144.988H262.692V146.988H255V144.988ZM255 144.988H255V146.988C253.895 146.988 253 146.092 253 144.988H255ZM255 138.372V144.988H253V138.372H255ZM255 138.372H255H253C253 137.268 253.895 136.372 255 136.372V138.372ZM262.692 138.372H255V136.372H262.692V138.372ZM264.692 128.68V136.372H262.692V128.68H264.692ZM264.692 128.68H262.692C262.692 127.575 263.588 126.68 264.692 126.68V128.68ZM271.308 128.68H264.692V126.68H271.308V128.68ZM271.308 128.68H271.308V126.68C272.412 126.68 273.308 127.575 273.308 128.68H271.308ZM271.308 136.372V128.68H273.308V136.372H271.308ZM281 138.372H273.308V136.372H281V138.372ZM281 138.372V136.372C282.105 136.372 283 137.268 283 138.372H281ZM281 144.988V138.372H283V144.988H281ZM281 144.988H283C283 146.092 282.105 146.988 281 146.988V144.988ZM273.308 144.988H281V146.988H273.308V144.988ZM271.308 154.68V146.988H273.308V154.68H271.308ZM271.308 154.68H271.308H273.308C273.308 155.785 272.412 156.68 271.308 156.68V154.68ZM264.692 154.68H271.308V156.68H264.692V154.68ZM273.308 146.988V146.988H271.308C271.308 145.883 272.203 144.988 273.308 144.988V146.988ZM273.308 136.372V138.372C272.203 138.372 271.308 137.477 271.308 136.372H273.308ZM262.692 136.372V136.372H264.692C264.692 137.477 263.797 138.372 262.692 138.372V136.372ZM262.692 146.988H262.692V144.988C263.797 144.988 264.692 145.883 264.692 146.988H262.692Z" fill="#FFFFFE" mask="url(#path-200-inside-13_401_5596)"/>
</mask>
<g mask="url(#mask3_401_5596)">
<path d="M263 156H273V150C273 147.239 270.761 145 268 145C265.239 145 263 147.239 263 150V156Z" fill="#172126"/>
<path d="M263 127.68H273V133.68C273 136.441 270.761 138.68 268 138.68C265.239 138.68 263 136.441 263 133.68V127.68Z" fill="#172126"/>
<path d="M268.208 130.992L269.741 133.291C269.852 133.457 269.733 133.68 269.533 133.68L266.467 133.68C266.267 133.68 266.148 133.457 266.259 133.291L267.792 130.992C267.891 130.844 268.109 130.844 268.208 130.992Z" fill="#F1F5F8"/>
<path d="M267.792 152.368L266.259 150.069C266.148 149.903 266.267 149.68 266.467 149.68L269.533 149.68C269.733 149.68 269.852 149.903 269.741 150.069L268.208 152.368C268.109 152.516 267.891 152.516 267.792 152.368Z" fill="#F1F5F8"/>
<path d="M279 141.68L276 143.68V139.68L279 141.68Z" fill="#172126"/>
<path d="M257 141.68L260 139.68L260 143.68L257 141.68Z" fill="#172126"/>
</g>
<mask id="path-208-inside-14_401_5596" fill="white">
<path fill-rule="evenodd" clip-rule="evenodd" d="M197.84 145.148C197.84 145.7 197.392 146.148 196.84 146.148L189.148 146.148C188.595 146.148 188.148 146.595 188.148 147.148L188.148 154.84C188.148 155.392 187.7 155.84 187.148 155.84L180.532 155.84C179.98 155.84 179.532 155.392 179.532 154.84L179.532 147.148C179.532 146.595 179.085 146.148 178.532 146.148L170.84 146.148C170.288 146.148 169.84 145.7 169.84 145.148L169.84 138.532C169.84 137.98 170.288 137.532 170.84 137.532L178.532 137.532C179.085 137.532 179.532 137.085 179.532 136.532L179.532 128.84C179.532 128.288 179.98 127.84 180.532 127.84L187.148 127.84C187.7 127.84 188.148 128.288 188.148 128.84L188.148 136.532C188.148 137.085 188.595 137.532 189.148 137.532L196.84 137.532C197.392 137.532 197.84 137.98 197.84 138.532L197.84 145.148Z"/>
</mask>
<path fill-rule="evenodd" clip-rule="evenodd" d="M197.84 145.148C197.84 145.7 197.392 146.148 196.84 146.148L189.148 146.148C188.595 146.148 188.148 146.595 188.148 147.148L188.148 154.84C188.148 155.392 187.7 155.84 187.148 155.84L180.532 155.84C179.98 155.84 179.532 155.392 179.532 154.84L179.532 147.148C179.532 146.595 179.085 146.148 178.532 146.148L170.84 146.148C170.288 146.148 169.84 145.7 169.84 145.148L169.84 138.532C169.84 137.98 170.288 137.532 170.84 137.532L178.532 137.532C179.085 137.532 179.532 137.085 179.532 136.532L179.532 128.84C179.532 128.288 179.98 127.84 180.532 127.84L187.148 127.84C187.7 127.84 188.148 128.288 188.148 128.84L188.148 136.532C188.148 137.085 188.595 137.532 189.148 137.532L196.84 137.532C197.392 137.532 197.84 137.98 197.84 138.532L197.84 145.148Z" fill="#F1F5F8"/>
<path d="M188.148 154.84L187.148 154.84L188.148 154.84ZM179.532 154.84L178.532 154.84L179.532 154.84ZM169.84 145.148L168.84 145.148L169.84 145.148ZM169.84 138.532L170.84 138.532L169.84 138.532ZM170.84 137.532L170.84 136.532L170.84 137.532ZM180.532 127.84L180.532 128.84L180.532 127.84ZM187.148 127.84L187.148 126.84L187.148 127.84ZM196.84 137.532L196.84 138.532L196.84 137.532ZM189.148 137.532L189.148 138.532L189.148 137.532ZM178.532 137.532L178.532 136.532L178.532 137.532ZM179.532 147.148L180.532 147.148L179.532 147.148ZM188.148 147.148L189.148 147.148L188.148 147.148ZM196.84 145.148L196.84 145.148L198.84 145.148C198.84 146.252 197.945 147.148 196.84 147.148L196.84 145.148ZM189.148 145.148L196.84 145.148L196.84 147.148L189.148 147.148L189.148 145.148ZM187.148 154.84L187.148 147.148L189.148 147.148L189.148 154.84L187.148 154.84ZM187.148 154.84L187.148 154.84L189.148 154.84C189.148 155.945 188.252 156.84 187.148 156.84L187.148 154.84ZM180.532 154.84L187.148 154.84L187.148 156.84L180.532 156.84L180.532 154.84ZM180.532 154.84L180.532 154.84L180.532 156.84C179.428 156.84 178.532 155.945 178.532 154.84L180.532 154.84ZM180.532 147.148L180.532 154.84L178.532 154.84L178.532 147.148L180.532 147.148ZM170.84 145.148L178.532 145.148L178.532 147.148L170.84 147.148L170.84 145.148ZM170.84 145.148L170.84 147.148C169.735 147.148 168.84 146.252 168.84 145.148L170.84 145.148ZM170.84 138.532L170.84 145.148L168.84 145.148L168.84 138.532L170.84 138.532ZM170.84 138.532L170.84 138.532L168.84 138.532C168.84 137.428 169.735 136.532 170.84 136.532L170.84 138.532ZM178.532 138.532L170.84 138.532L170.84 136.532L178.532 136.532L178.532 138.532ZM180.532 128.84L180.532 136.532L178.532 136.532L178.532 128.84L180.532 128.84ZM180.532 128.84L178.532 128.84C178.532 127.735 179.428 126.84 180.532 126.84L180.532 128.84ZM187.148 128.84L180.532 128.84L180.532 126.84L187.148 126.84L187.148 128.84ZM187.148 128.84L187.148 126.84C188.252 126.84 189.148 127.735 189.148 128.84L187.148 128.84ZM187.148 136.532L187.148 128.84L189.148 128.84L189.148 136.532L187.148 136.532ZM196.84 138.532L189.148 138.532L189.148 136.532L196.84 136.532L196.84 138.532ZM196.84 138.532L196.84 138.532L196.84 136.532C197.945 136.532 198.84 137.428 198.84 138.532L196.84 138.532ZM196.84 145.148L196.84 138.532L198.84 138.532L198.84 145.148L196.84 145.148ZM189.148 136.532L189.148 136.532L189.148 138.532C188.043 138.532 187.148 137.637 187.148 136.532L189.148 136.532ZM178.532 136.532L180.532 136.532C180.532 137.637 179.637 138.532 178.532 138.532L178.532 136.532ZM178.532 147.148L178.532 147.148L178.532 145.148C179.637 145.148 180.532 146.043 180.532 147.148L178.532 147.148ZM189.148 147.148L189.148 147.148L187.148 147.148C187.148 146.043 188.043 145.148 189.148 145.148L189.148 147.148Z" fill="#E9EEF2" mask="url(#path-208-inside-14_401_5596)"/>
<mask id="mask4_401_5596" style="mask-type:alpha" maskUnits="userSpaceOnUse" x="169" y="127" width="29" height="29">
<mask id="path-210-inside-15_401_5596" fill="white">
<path fill-rule="evenodd" clip-rule="evenodd" d="M197.84 145.148C197.84 145.7 197.392 146.148 196.84 146.148L189.148 146.148C188.595 146.148 188.148 146.595 188.148 147.148L188.148 154.84C188.148 155.392 187.7 155.84 187.148 155.84L180.532 155.84C179.98 155.84 179.532 155.392 179.532 154.84L179.532 147.148C179.532 146.595 179.085 146.148 178.532 146.148L170.84 146.148C170.288 146.148 169.84 145.7 169.84 145.148L169.84 138.532C169.84 137.98 170.288 137.532 170.84 137.532L178.532 137.532C179.085 137.532 179.532 137.085 179.532 136.532L179.532 128.84C179.532 128.288 179.98 127.84 180.532 127.84L187.148 127.84C187.7 127.84 188.148 128.288 188.148 128.84L188.148 136.532C188.148 137.085 188.595 137.532 189.148 137.532L196.84 137.532C197.392 137.532 197.84 137.98 197.84 138.532L197.84 145.148Z"/>
</mask>
<path fill-rule="evenodd" clip-rule="evenodd" d="M197.84 145.148C197.84 145.7 197.392 146.148 196.84 146.148L189.148 146.148C188.595 146.148 188.148 146.595 188.148 147.148L188.148 154.84C188.148 155.392 187.7 155.84 187.148 155.84L180.532 155.84C179.98 155.84 179.532 155.392 179.532 154.84L179.532 147.148C179.532 146.595 179.085 146.148 178.532 146.148L170.84 146.148C170.288 146.148 169.84 145.7 169.84 145.148L169.84 138.532C169.84 137.98 170.288 137.532 170.84 137.532L178.532 137.532C179.085 137.532 179.532 137.085 179.532 136.532L179.532 128.84C179.532 128.288 179.98 127.84 180.532 127.84L187.148 127.84C187.7 127.84 188.148 128.288 188.148 128.84L188.148 136.532C188.148 137.085 188.595 137.532 189.148 137.532L196.84 137.532C197.392 137.532 197.84 137.98 197.84 138.532L197.84 145.148Z" fill="#0F0E17"/>
<path d="M188.148 154.84L187.148 154.84L188.148 154.84ZM179.532 154.84L178.532 154.84L179.532 154.84ZM169.84 145.148L168.84 145.148L169.84 145.148ZM169.84 138.532L170.84 138.532L169.84 138.532ZM170.84 137.532L170.84 136.532L170.84 137.532ZM180.532 127.84L180.532 128.84L180.532 127.84ZM187.148 127.84L187.148 126.84L187.148 127.84ZM196.84 137.532L196.84 138.532L196.84 137.532ZM189.148 137.532L189.148 138.532L189.148 137.532ZM178.532 137.532L178.532 136.532L178.532 137.532ZM179.532 147.148L180.532 147.148L179.532 147.148ZM188.148 147.148L189.148 147.148L188.148 147.148ZM196.84 145.148L196.84 145.148L198.84 145.148C198.84 146.252 197.945 147.148 196.84 147.148L196.84 145.148ZM189.148 145.148L196.84 145.148L196.84 147.148L189.148 147.148L189.148 145.148ZM187.148 154.84L187.148 147.148L189.148 147.148L189.148 154.84L187.148 154.84ZM187.148 154.84L187.148 154.84L189.148 154.84C189.148 155.945 188.252 156.84 187.148 156.84L187.148 154.84ZM180.532 154.84L187.148 154.84L187.148 156.84L180.532 156.84L180.532 154.84ZM180.532 154.84L180.532 154.84L180.532 156.84C179.428 156.84 178.532 155.945 178.532 154.84L180.532 154.84ZM180.532 147.148L180.532 154.84L178.532 154.84L178.532 147.148L180.532 147.148ZM170.84 145.148L178.532 145.148L178.532 147.148L170.84 147.148L170.84 145.148ZM170.84 145.148L170.84 147.148C169.735 147.148 168.84 146.252 168.84 145.148L170.84 145.148ZM170.84 138.532L170.84 145.148L168.84 145.148L168.84 138.532L170.84 138.532ZM170.84 138.532L170.84 138.532L168.84 138.532C168.84 137.428 169.735 136.532 170.84 136.532L170.84 138.532ZM178.532 138.532L170.84 138.532L170.84 136.532L178.532 136.532L178.532 138.532ZM180.532 128.84L180.532 136.532L178.532 136.532L178.532 128.84L180.532 128.84ZM180.532 128.84L178.532 128.84C178.532 127.735 179.428 126.84 180.532 126.84L180.532 128.84ZM187.148 128.84L180.532 128.84L180.532 126.84L187.148 126.84L187.148 128.84ZM187.148 128.84L187.148 126.84C188.252 126.84 189.148 127.735 189.148 128.84L187.148 128.84ZM187.148 136.532L187.148 128.84L189.148 128.84L189.148 136.532L187.148 136.532ZM196.84 138.532L189.148 138.532L189.148 136.532L196.84 136.532L196.84 138.532ZM196.84 138.532L196.84 138.532L196.84 136.532C197.945 136.532 198.84 137.428 198.84 138.532L196.84 138.532ZM196.84 145.148L196.84 138.532L198.84 138.532L198.84 145.148L196.84 145.148ZM189.148 136.532L189.148 136.532L189.148 138.532C188.043 138.532 187.148 137.637 187.148 136.532L189.148 136.532ZM178.532 136.532L180.532 136.532C180.532 137.637 179.637 138.532 178.532 138.532L178.532 136.532ZM178.532 147.148L178.532 147.148L178.532 145.148C179.637 145.148 180.532 146.043 180.532 147.148L178.532 147.148ZM189.148 147.148L189.148 147.148L187.148 147.148C187.148 146.043 188.043 145.148 189.148 145.148L189.148 147.148Z" fill="#FFFFFE" mask="url(#path-210-inside-15_401_5596)"/>
</mask>
<g mask="url(#mask4_401_5596)">
<path d="M198.16 146.84L198.16 136.84L192.16 136.84C189.399 136.84 187.16 139.079 187.16 141.84C187.16 144.601 189.399 146.84 192.16 146.84L198.16 146.84Z" fill="#172126"/>
<path d="M172.84 141.84L175.84 139.84L175.84 143.84L172.84 141.84Z" fill="#172126"/>
<path d="M194.84 141.84L191.84 143.84V139.84L194.84 141.84Z" fill="#F1F5F8"/>
<path d="M183.84 130.84L185.84 133.84L181.84 133.84L183.84 130.84Z" fill="#172126"/>
<path d="M183.84 152.84L181.84 149.84L185.84 149.84L183.84 152.84Z" fill="#172126"/>
</g>
<mask id="path-217-inside-16_401_5596" fill="white">
<path fill-rule="evenodd" clip-rule="evenodd" d="M239.84 145.148C239.84 145.7 239.392 146.148 238.84 146.148L231.148 146.148C230.595 146.148 230.148 146.595 230.148 147.148L230.148 154.84C230.148 155.392 229.7 155.84 229.148 155.84L222.532 155.84C221.98 155.84 221.532 155.392 221.532 154.84L221.532 147.148C221.532 146.595 221.085 146.148 220.532 146.148L212.84 146.148C212.288 146.148 211.84 145.7 211.84 145.148L211.84 138.532C211.84 137.98 212.288 137.532 212.84 137.532L220.532 137.532C221.085 137.532 221.532 137.085 221.532 136.532L221.532 128.84C221.532 128.288 221.98 127.84 222.532 127.84L229.148 127.84C229.7 127.84 230.148 128.288 230.148 128.84L230.148 136.532C230.148 137.085 230.595 137.532 231.148 137.532L238.84 137.532C239.392 137.532 239.84 137.98 239.84 138.532L239.84 145.148Z"/>
</mask>
<path fill-rule="evenodd" clip-rule="evenodd" d="M239.84 145.148C239.84 145.7 239.392 146.148 238.84 146.148L231.148 146.148C230.595 146.148 230.148 146.595 230.148 147.148L230.148 154.84C230.148 155.392 229.7 155.84 229.148 155.84L222.532 155.84C221.98 155.84 221.532 155.392 221.532 154.84L221.532 147.148C221.532 146.595 221.085 146.148 220.532 146.148L212.84 146.148C212.288 146.148 211.84 145.7 211.84 145.148L211.84 138.532C211.84 137.98 212.288 137.532 212.84 137.532L220.532 137.532C221.085 137.532 221.532 137.085 221.532 136.532L221.532 128.84C221.532 128.288 221.98 127.84 222.532 127.84L229.148 127.84C229.7 127.84 230.148 128.288 230.148 128.84L230.148 136.532C230.148 137.085 230.595 137.532 231.148 137.532L238.84 137.532C239.392 137.532 239.84 137.98 239.84 138.532L239.84 145.148Z" fill="#F1F5F8"/>
<path d="M239.84 145.148L240.84 145.148L239.84 145.148ZM229.148 155.84L229.148 156.84L229.148 155.84ZM222.532 155.84L222.532 154.84L222.532 155.84ZM221.532 154.84L222.532 154.84L221.532 154.84ZM212.84 146.148L212.84 145.148L212.84 146.148ZM211.84 145.148L212.84 145.148L211.84 145.148ZM211.84 138.532L210.84 138.532L211.84 138.532ZM222.532 127.84L222.532 128.84L222.532 127.84ZM229.148 127.84L229.148 126.84L229.148 127.84ZM239.84 138.532L238.84 138.532L239.84 138.532ZM221.532 147.148L220.532 147.148L221.532 147.148ZM238.84 145.148L238.84 145.148L240.84 145.148C240.84 146.252 239.945 147.148 238.84 147.148L238.84 145.148ZM231.148 145.148L238.84 145.148L238.84 147.148L231.148 147.148L231.148 145.148ZM229.148 154.84L229.148 147.148L231.148 147.148L231.148 154.84L229.148 154.84ZM229.148 154.84L229.148 154.84L231.148 154.84C231.148 155.945 230.252 156.84 229.148 156.84L229.148 154.84ZM222.532 154.84L229.148 154.84L229.148 156.84L222.532 156.84L222.532 154.84ZM222.532 154.84L222.532 154.84L222.532 156.84C221.428 156.84 220.532 155.945 220.532 154.84L222.532 154.84ZM222.532 147.148L222.532 154.84L220.532 154.84L220.532 147.148L222.532 147.148ZM212.84 145.148L220.532 145.148L220.532 147.148L212.84 147.148L212.84 145.148ZM212.84 145.148L212.84 147.148C211.735 147.148 210.84 146.252 210.84 145.148L212.84 145.148ZM212.84 138.532L212.84 145.148L210.84 145.148L210.84 138.532L212.84 138.532ZM212.84 138.532L212.84 138.532L210.84 138.532C210.84 137.428 211.735 136.532 212.84 136.532L212.84 138.532ZM220.532 138.532L212.84 138.532L212.84 136.532L220.532 136.532L220.532 138.532ZM222.532 128.84L222.532 136.532L220.532 136.532L220.532 128.84L222.532 128.84ZM222.532 128.84L220.532 128.84C220.532 127.735 221.428 126.84 222.532 126.84L222.532 128.84ZM229.148 128.84L222.532 128.84L222.532 126.84L229.148 126.84L229.148 128.84ZM229.148 128.84L229.148 126.84C230.252 126.84 231.148 127.735 231.148 128.84L229.148 128.84ZM229.148 136.532L229.148 128.84L231.148 128.84L231.148 136.532L229.148 136.532ZM238.84 138.532L231.148 138.532L231.148 136.532L238.84 136.532L238.84 138.532ZM238.84 138.532L238.84 138.532L238.84 136.532C239.945 136.532 240.84 137.428 240.84 138.532L238.84 138.532ZM238.84 145.148L238.84 138.532L240.84 138.532L240.84 145.148L238.84 145.148ZM231.148 136.532L231.148 136.532L231.148 138.532C230.043 138.532 229.148 137.637 229.148 136.532L231.148 136.532ZM220.532 136.532L222.532 136.532C222.532 137.637 221.637 138.532 220.532 138.532L220.532 136.532ZM220.532 147.148L220.532 147.148L220.532 145.148C221.637 145.148 222.532 146.043 222.532 147.148L220.532 147.148ZM231.148 147.148L231.148 147.148L229.148 147.148C229.148 146.043 230.043 145.148 231.148 145.148L231.148 147.148Z" fill="#E9EEF2" mask="url(#path-217-inside-16_401_5596)"/>
<mask id="mask5_401_5596" style="mask-type:alpha" maskUnits="userSpaceOnUse" x="211" y="127" width="29" height="29">
<mask id="path-219-inside-17_401_5596" fill="white">
<path fill-rule="evenodd" clip-rule="evenodd" d="M239.84 145.148C239.84 145.7 239.392 146.148 238.84 146.148L231.148 146.148C230.595 146.148 230.148 146.595 230.148 147.148L230.148 154.84C230.148 155.392 229.7 155.84 229.148 155.84L222.532 155.84C221.98 155.84 221.532 155.392 221.532 154.84L221.532 147.148C221.532 146.595 221.085 146.148 220.532 146.148L212.84 146.148C212.288 146.148 211.84 145.7 211.84 145.148L211.84 138.532C211.84 137.98 212.288 137.532 212.84 137.532L220.532 137.532C221.085 137.532 221.532 137.085 221.532 136.532L221.532 128.84C221.532 128.288 221.98 127.84 222.532 127.84L229.148 127.84C229.7 127.84 230.148 128.288 230.148 128.84L230.148 136.532C230.148 137.085 230.595 137.532 231.148 137.532L238.84 137.532C239.392 137.532 239.84 137.98 239.84 138.532L239.84 145.148Z"/>
</mask>
<path fill-rule="evenodd" clip-rule="evenodd" d="M239.84 145.148C239.84 145.7 239.392 146.148 238.84 146.148L231.148 146.148C230.595 146.148 230.148 146.595 230.148 147.148L230.148 154.84C230.148 155.392 229.7 155.84 229.148 155.84L222.532 155.84C221.98 155.84 221.532 155.392 221.532 154.84L221.532 147.148C221.532 146.595 221.085 146.148 220.532 146.148L212.84 146.148C212.288 146.148 211.84 145.7 211.84 145.148L211.84 138.532C211.84 137.98 212.288 137.532 212.84 137.532L220.532 137.532C221.085 137.532 221.532 137.085 221.532 136.532L221.532 128.84C221.532 128.288 221.98 127.84 222.532 127.84L229.148 127.84C229.7 127.84 230.148 128.288 230.148 128.84L230.148 136.532C230.148 137.085 230.595 137.532 231.148 137.532L238.84 137.532C239.392 137.532 239.84 137.98 239.84 138.532L239.84 145.148Z" fill="#0F0E17"/>
<path d="M239.84 145.148L240.84 145.148L239.84 145.148ZM229.148 155.84L229.148 156.84L229.148 155.84ZM222.532 155.84L222.532 154.84L222.532 155.84ZM221.532 154.84L222.532 154.84L221.532 154.84ZM212.84 146.148L212.84 145.148L212.84 146.148ZM211.84 145.148L212.84 145.148L211.84 145.148ZM211.84 138.532L210.84 138.532L211.84 138.532ZM222.532 127.84L222.532 128.84L222.532 127.84ZM229.148 127.84L229.148 126.84L229.148 127.84ZM239.84 138.532L238.84 138.532L239.84 138.532ZM221.532 147.148L220.532 147.148L221.532 147.148ZM238.84 145.148L238.84 145.148L240.84 145.148C240.84 146.252 239.945 147.148 238.84 147.148L238.84 145.148ZM231.148 145.148L238.84 145.148L238.84 147.148L231.148 147.148L231.148 145.148ZM229.148 154.84L229.148 147.148L231.148 147.148L231.148 154.84L229.148 154.84ZM229.148 154.84L229.148 154.84L231.148 154.84C231.148 155.945 230.252 156.84 229.148 156.84L229.148 154.84ZM222.532 154.84L229.148 154.84L229.148 156.84L222.532 156.84L222.532 154.84ZM222.532 154.84L222.532 154.84L222.532 156.84C221.428 156.84 220.532 155.945 220.532 154.84L222.532 154.84ZM222.532 147.148L222.532 154.84L220.532 154.84L220.532 147.148L222.532 147.148ZM212.84 145.148L220.532 145.148L220.532 147.148L212.84 147.148L212.84 145.148ZM212.84 145.148L212.84 147.148C211.735 147.148 210.84 146.252 210.84 145.148L212.84 145.148ZM212.84 138.532L212.84 145.148L210.84 145.148L210.84 138.532L212.84 138.532ZM212.84 138.532L212.84 138.532L210.84 138.532C210.84 137.428 211.735 136.532 212.84 136.532L212.84 138.532ZM220.532 138.532L212.84 138.532L212.84 136.532L220.532 136.532L220.532 138.532ZM222.532 128.84L222.532 136.532L220.532 136.532L220.532 128.84L222.532 128.84ZM222.532 128.84L220.532 128.84C220.532 127.735 221.428 126.84 222.532 126.84L222.532 128.84ZM229.148 128.84L222.532 128.84L222.532 126.84L229.148 126.84L229.148 128.84ZM229.148 128.84L229.148 126.84C230.252 126.84 231.148 127.735 231.148 128.84L229.148 128.84ZM229.148 136.532L229.148 128.84L231.148 128.84L231.148 136.532L229.148 136.532ZM238.84 138.532L231.148 138.532L231.148 136.532L238.84 136.532L238.84 138.532ZM238.84 138.532L238.84 138.532L238.84 136.532C239.945 136.532 240.84 137.428 240.84 138.532L238.84 138.532ZM238.84 145.148L238.84 138.532L240.84 138.532L240.84 145.148L238.84 145.148ZM231.148 136.532L231.148 136.532L231.148 138.532C230.043 138.532 229.148 137.637 229.148 136.532L231.148 136.532ZM220.532 136.532L222.532 136.532C222.532 137.637 221.637 138.532 220.532 138.532L220.532 136.532ZM220.532 147.148L220.532 147.148L220.532 145.148C221.637 145.148 222.532 146.043 222.532 147.148L220.532 147.148ZM231.148 147.148L231.148 147.148L229.148 147.148C229.148 146.043 230.043 145.148 231.148 145.148L231.148 147.148Z" fill="#FFFFFE" mask="url(#path-219-inside-17_401_5596)"/>
</mask>
<g mask="url(#mask5_401_5596)">
<path d="M211.84 146.84L211.84 136.84L217.84 136.84C220.601 136.84 222.84 139.079 222.84 141.84C222.84 144.601 220.601 146.84 217.84 146.84L211.84 146.84Z" fill="#172126"/>
<path d="M240.16 146.84L240.16 136.84L234.16 136.84C231.399 136.84 229.16 139.079 229.16 141.84C229.16 144.601 231.399 146.84 234.16 146.84L240.16 146.84Z" fill="#172126"/>
<path d="M236.84 141.84L233.84 143.84V139.84L236.84 141.84Z" fill="#F1F5F8"/>
<path d="M225.84 130.84L227.84 133.84L223.84 133.84L225.84 130.84Z" fill="#172126"/>
<path d="M225.84 152.84L223.84 149.84L227.84 149.84L225.84 152.84Z" fill="#172126"/>
<path d="M214.84 141.84L217.84 139.84L217.84 143.84L214.84 141.84Z" fill="#F1F5F8"/>
</g>
<circle cx="12" cy="12" r="11.5" transform="matrix(1.19249e-08 -1 -1 -1.19249e-08 28 70)" fill="#F1F5F8" stroke="#E9EEF2"/>
<path d="M15.8 53.2L21 61L10.6 61L15.8 53.2Z" fill="#172126"/>
<rect x="88.5" y="297.5" width="23" height="23" rx="2.5" fill="#F1F5F8"/>
<rect x="88.5" y="297.5" width="23" height="23" rx="2.5" stroke="#E9EEF2"/>
<circle cx="100" cy="309" r="7.5" fill="#2A2A2A" stroke="#E9EEF2"/>
<path d="M27 110H4C3.44772 110 3 109.552 3 109V95C3 92.2386 5.23858 90 8 90H27C27.5523 90 28 90.4477 28 91V109C28 109.552 27.5523 110 27 110Z" fill="#F1F5F8" stroke="#E9EEF2"/>
<path d="M12.68 95.8H14.28V105.608H20.344V107H12.68V95.8Z" fill="#172126"/>
<path d="M46 110H69C69.5523 110 70 109.552 70 109V95C70 92.2386 67.7614 90 65 90H46C45.4477 90 45 90.4477 45 91V109C45 109.552 45.4477 110 46 110Z" fill="#F1F5F8" stroke="#E9EEF2"/>
<path d="M61.168 107L58.752 103.56C58.4533 103.581 58.2187 103.592 58.048 103.592H55.28V107H53.68V95.8H58.048C59.4987 95.8 60.64 96.1467 61.472 96.84C62.304 97.5333 62.72 98.488 62.72 99.704C62.72 100.568 62.5067 101.304 62.08 101.912C61.6533 102.52 61.0453 102.963 60.256 103.24L62.912 107H61.168ZM58 102.232C59.0133 102.232 59.7867 102.013 60.32 101.576C60.8533 101.139 61.12 100.515 61.12 99.704C61.12 98.8933 60.8533 98.2747 60.32 97.848C59.7867 97.4107 59.0133 97.192 58 97.192H55.28V102.232H58Z" fill="#172126"/>
<path d="M88 96.5C88 91.2533 92.2533 87 97.5 87H109.5C110.881 87 112 88.1193 112 89.5V111.5C112 111.776 111.776 112 111.5 112H88.5C88.2239 112 88 111.776 88 111.5V96.5Z" fill="#F1F5F8" stroke="#E9EEF2"/>
<path d="M101.048 105.608V107H91.688V105.912L98.728 97.192H91.8V95.8H100.84V96.888L93.832 105.608H101.048ZM102.986 97.2H104.386V105.782H109.692V107H102.986V97.2Z" fill="#172126"/>
<path d="M130 96.5C130 91.2533 134.253 87 139.5 87H151.5C152.881 87 154 88.1193 154 89.5V111.5C154 111.776 153.776 112 153.5 112H130.5C130.224 112 130 111.776 130 111.5V96.5Z" fill="#F1F5F8" stroke="#E9EEF2"/>
<path d="M142.048 105.608V107H132.688V105.912L139.728 97.192H132.8V95.8H141.84V96.888L134.832 105.608H142.048ZM150.538 107L148.424 103.99C148.162 104.009 147.957 104.018 147.808 104.018H145.386V107H143.986V97.2H147.808C149.077 97.2 150.076 97.5033 150.804 98.11C151.532 98.7167 151.896 99.552 151.896 100.616C151.896 101.372 151.709 102.016 151.336 102.548C150.962 103.08 150.43 103.467 149.74 103.71L152.064 107H150.538ZM147.766 102.828C148.652 102.828 149.329 102.637 149.796 102.254C150.262 101.871 150.496 101.325 150.496 100.616C150.496 99.9067 150.262 99.3653 149.796 98.992C149.329 98.6093 148.652 98.418 147.766 98.418H145.386V102.828H147.766Z" fill="#172126"/>
<g clip-path="url(#clip2_401_5596)">
<g clip-path="url(#clip3_401_5596)">
<path d="M49.0359 360.526C46.1661 358.869 45.1829 355.2 46.8397 352.33L48.8397 348.866L69.6243 360.866L67.6243 364.33C65.9675 367.2 62.2979 368.183 59.4282 366.526L49.0359 360.526Z" fill="#F1F5F8"/>
<path d="M58.8534 362.345L60.52 359.459L58.8534 362.345ZM58.2196 360.055L59.6867 360.902L61.1539 361.749" fill="#172126"/>
<path d="M58.8534 362.345L60.52 359.459M58.2196 360.055L59.6867 360.902L61.1539 361.749" stroke="#172126" stroke-width="1.8" stroke-linecap="round" stroke-linejoin="round"/>
<path d="M52.6212 354.834C53.4691 355.324 53.755 356.388 53.2832 357.205C52.8115 358.022 51.7469 358.307 50.8989 357.817C50.051 357.328 49.7651 356.263 50.2369 355.446C50.7086 354.629 51.7732 354.345 52.6212 354.834Z" fill="#172126" stroke="#172126"/>
</g>
<path d="M49.2859 360.093C46.6553 358.575 45.754 355.211 47.2727 352.58L49.0227 349.549L68.9413 361.049L67.1913 364.08C65.6725 366.711 62.3088 367.612 59.6782 366.093L49.2859 360.093Z" stroke="#E9EEF2"/>
<g clip-path="url(#clip4_401_5596)">
<path d="M56.5718 339.474C53.702 337.817 50.0325 338.8 48.3756 341.67L46.3756 345.134L67.1602 357.134L69.1602 353.67C70.8171 350.8 69.8338 347.131 66.9641 345.474L56.5718 339.474Z" fill="#172126"/>
<path d="M63.0559 347.066L61.3892 349.953L63.0559 347.066ZM60.7554 347.663L62.2226 348.51L63.6897 349.357" fill="#F1F5F8"/>
<path d="M63.0559 347.066L61.3892 349.953M60.7554 347.663L62.2226 348.51L63.6897 349.357" stroke="#F1F5F8" stroke-width="1.8" stroke-linecap="round" stroke-linejoin="round"/>
<path d="M53.4348 345.425C54.2827 345.914 55.3473 345.63 55.8191 344.813C56.2908 343.996 56.0049 342.931 55.157 342.442C54.3091 341.952 53.2445 342.237 52.7727 343.054C52.301 343.871 52.5869 344.935 53.4348 345.425Z" fill="#F1F5F8" stroke="#F1F5F8"/>
</g>
<path d="M56.3218 339.907C53.6912 338.388 50.3274 339.289 48.8086 341.92L47.0586 344.951L66.9772 356.451L68.7272 353.42C70.246 350.789 69.3447 347.425 66.7141 345.907L56.3218 339.907Z" stroke="#172126"/>
</g>
<path d="M195 110H176C173.239 110 171 107.761 171 105V95C171 92.2386 173.239 90 176 90H195C195.552 90 196 90.4477 196 91V109C196 109.552 195.552 110 195 110Z" fill="#F1F5F8" stroke="#E9EEF2"/>
<path d="M179.444 107.128C177.732 107.128 176.052 106.552 175.156 105.72L175.748 104.472C176.58 105.224 178.004 105.768 179.444 105.768C181.38 105.768 182.212 105.016 182.212 104.04C182.212 101.304 175.428 103.032 175.428 98.872C175.428 97.144 176.772 95.672 179.716 95.672C181.028 95.672 182.388 96.024 183.316 96.664L182.788 97.944C181.812 97.32 180.708 97.032 179.716 97.032C177.812 97.032 176.996 97.832 176.996 98.808C176.996 101.544 183.78 99.832 183.78 103.944C183.78 105.656 182.404 107.128 179.444 107.128ZM185.908 107V97.2H187.308V105.782H192.614V107H185.908Z" fill="#172126"/>
<path d="M214 110H233C235.761 110 238 107.761 238 105V95C238 92.2386 235.761 90 233 90H214C213.448 90 213 90.4477 213 91V109C213 109.552 213.448 110 214 110Z" fill="#F1F5F8" stroke="#E9EEF2"/>
<path d="M220.444 107.128C218.732 107.128 217.052 106.552 216.156 105.72L216.748 104.472C217.58 105.224 219.004 105.768 220.444 105.768C222.38 105.768 223.212 105.016 223.212 104.04C223.212 101.304 216.428 103.032 216.428 98.872C216.428 97.144 217.772 95.672 220.716 95.672C222.028 95.672 223.388 96.024 224.316 96.664L223.788 97.944C222.812 97.32 221.708 97.032 220.716 97.032C218.812 97.032 217.996 97.832 217.996 98.808C217.996 101.544 224.78 99.832 224.78 103.944C224.78 105.656 223.404 107.128 220.444 107.128ZM234.986 107H233.46L231.346 103.99C231.15 104.004 230.94 104.018 230.73 104.018H228.308V107H226.908V97.2H230.73C233.278 97.2 234.818 98.488 234.818 100.616C234.818 102.128 234.034 103.22 232.662 103.71L234.986 107ZM230.688 102.828C232.48 102.828 233.418 102.016 233.418 100.616C233.418 99.216 232.48 98.418 230.688 98.418H228.308V102.828H230.688Z" fill="#172126"/>
<defs>
<clipPath id="clip0_401_5596">
<path d="M96.0622 343.5C92.7141 341.567 88.433 342.714 86.5 346.062L84 350.392L109.115 364.892L111.615 360.562C113.548 357.214 112.401 352.933 109.053 351L96.0622 343.5Z" fill="white"/>
</clipPath>
<clipPath id="clip1_401_5596">
<path d="M138.062 360.5C134.714 362.433 130.433 361.286 128.5 357.938L126 353.608L151.115 339.108L153.615 343.438C155.548 346.786 154.401 351.067 151.053 353L138.062 360.5Z" fill="white"/>
</clipPath>
<clipPath id="clip2_401_5596">
<rect width="32" height="32" fill="white" transform="matrix(-1 0 0 1 74 336)"/>
</clipPath>
<clipPath id="clip3_401_5596">
<path d="M49.0359 360.526C46.1661 358.869 45.1829 355.2 46.8397 352.33L48.8397 348.866L69.6243 360.866L67.6243 364.33C65.9675 367.2 62.2979 368.183 59.4282 366.526L49.0359 360.526Z" fill="white"/>
</clipPath>
<clipPath id="clip4_401_5596">
<path d="M56.5718 339.474C53.702 337.817 50.0325 338.8 48.3756 341.67L46.3756 345.134L67.1602 357.134L69.1602 353.67C70.8171 350.8 69.8338 347.131 66.9641 345.474L56.5718 339.474Z" fill="white"/>
</clipPath>
</defs>
</svg>
